<?xml version="1.0" encoding="utf-8" standalone="no"?>
<!DOCTYPE svg PUBLIC "-//W3C//DTD SVG 1.1//EN"
  "http://www.w3.org/Graphics/SVG/1.1/DTD/svg11.dtd">
<svg xmlns:xlink="http://www.w3.org/1999/xlink" width="460.8pt" height="345.6pt" viewBox="0 0 460.8 345.6" xmlns="http://www.w3.org/2000/svg" version="1.1">
 <metadata>
  <rdf:RDF xmlns:dc="http://purl.org/dc/elements/1.1/" xmlns:cc="http://creativecommons.org/ns#" xmlns:rdf="http://www.w3.org/1999/02/22-rdf-syntax-ns#">
   <cc:Work>
    <dc:type rdf:resource="http://purl.org/dc/dcmitype/StillImage"/>
    <dc:date>2024-10-28T20:31:07.561603</dc:date>
    <dc:format>image/svg+xml</dc:format>
    <dc:creator>
     <cc:Agent>
      <dc:title>Matplotlib v3.9.2, https://matplotlib.org/</dc:title>
     </cc:Agent>
    </dc:creator>
   </cc:Work>
  </rdf:RDF>
 </metadata>
 <defs>
  <style type="text/css">*{stroke-linejoin: round; stroke-linecap: butt}</style>
 </defs>
 <g id="figure_1">
  <g id="patch_1">
   <path d="M 0 345.6 
L 460.8 345.6 
L 460.8 0 
L 0 0 
z
" style="fill: #ffffff"/>
  </g>
  <g id="axes_1">
   <g id="patch_2">
    <path d="M 57.6 307.584 
L 414.72 307.584 
L 414.72 41.472 
L 57.6 41.472 
z
" style="fill: #eaeaf2"/>
   </g>
   <g id="matplotlib.axis_1">
    <g id="xtick_1">
     <g id="line2d_1">
      <path d="M 73.832727 307.584 
L 73.832727 41.472 
" clip-path="url(#p2cce2197e2)" style="fill: none; stroke: #ffffff; stroke-linecap: round"/>
     </g>
     <g id="text_1">
      <!-- 0 -->
      <g style="fill: #262626" transform="translate(70.774212 324.957594) scale(0.11 -0.11)">
       <defs>
        <path id="ArialMT-30" d="M 266 2259 
Q 266 3072 433 3567 
Q 600 4063 929 4331 
Q 1259 4600 1759 4600 
Q 2128 4600 2406 4451 
Q 2684 4303 2865 4023 
Q 3047 3744 3150 3342 
Q 3253 2941 3253 2259 
Q 3253 1453 3087 958 
Q 2922 463 2592 192 
Q 2263 -78 1759 -78 
Q 1097 -78 719 397 
Q 266 969 266 2259 
z
M 844 2259 
Q 844 1131 1108 757 
Q 1372 384 1759 384 
Q 2147 384 2411 759 
Q 2675 1134 2675 2259 
Q 2675 3391 2411 3762 
Q 2147 4134 1753 4134 
Q 1366 4134 1134 3806 
Q 844 3388 844 2259 
z
" transform="scale(0.015625)"/>
       </defs>
       <use xlink:href="#ArialMT-30"/>
      </g>
     </g>
    </g>
    <g id="xtick_2">
     <g id="line2d_2">
      <path d="M 117.12 307.584 
L 117.12 41.472 
" clip-path="url(#p2cce2197e2)" style="fill: none; stroke: #ffffff; stroke-linecap: round"/>
     </g>
     <g id="text_2">
      <!-- 10 -->
      <g style="fill: #262626" transform="translate(111.002969 324.957594) scale(0.11 -0.11)">
       <defs>
        <path id="ArialMT-31" d="M 2384 0 
L 1822 0 
L 1822 3584 
Q 1619 3391 1289 3197 
Q 959 3003 697 2906 
L 697 3450 
Q 1169 3672 1522 3987 
Q 1875 4303 2022 4600 
L 2384 4600 
L 2384 0 
z
" transform="scale(0.015625)"/>
       </defs>
       <use xlink:href="#ArialMT-31"/>
       <use xlink:href="#ArialMT-30" x="55.615234"/>
      </g>
     </g>
    </g>
    <g id="xtick_3">
     <g id="line2d_3">
      <path d="M 160.407273 307.584 
L 160.407273 41.472 
" clip-path="url(#p2cce2197e2)" style="fill: none; stroke: #ffffff; stroke-linecap: round"/>
     </g>
     <g id="text_3">
      <!-- 20 -->
      <g style="fill: #262626" transform="translate(154.290241 324.957594) scale(0.11 -0.11)">
       <defs>
        <path id="ArialMT-32" d="M 3222 541 
L 3222 0 
L 194 0 
Q 188 203 259 391 
Q 375 700 629 1000 
Q 884 1300 1366 1694 
Q 2113 2306 2375 2664 
Q 2638 3022 2638 3341 
Q 2638 3675 2398 3904 
Q 2159 4134 1775 4134 
Q 1369 4134 1125 3890 
Q 881 3647 878 3216 
L 300 3275 
Q 359 3922 746 4261 
Q 1134 4600 1788 4600 
Q 2447 4600 2831 4234 
Q 3216 3869 3216 3328 
Q 3216 3053 3103 2787 
Q 2991 2522 2730 2228 
Q 2469 1934 1863 1422 
Q 1356 997 1212 845 
Q 1069 694 975 541 
L 3222 541 
z
" transform="scale(0.015625)"/>
       </defs>
       <use xlink:href="#ArialMT-32"/>
       <use xlink:href="#ArialMT-30" x="55.615234"/>
      </g>
     </g>
    </g>
    <g id="xtick_4">
     <g id="line2d_4">
      <path d="M 203.694545 307.584 
L 203.694545 41.472 
" clip-path="url(#p2cce2197e2)" style="fill: none; stroke: #ffffff; stroke-linecap: round"/>
     </g>
     <g id="text_4">
      <!-- 30 -->
      <g style="fill: #262626" transform="translate(197.577514 324.957594) scale(0.11 -0.11)">
       <defs>
        <path id="ArialMT-33" d="M 269 1209 
L 831 1284 
Q 928 806 1161 595 
Q 1394 384 1728 384 
Q 2125 384 2398 659 
Q 2672 934 2672 1341 
Q 2672 1728 2419 1979 
Q 2166 2231 1775 2231 
Q 1616 2231 1378 2169 
L 1441 2663 
Q 1497 2656 1531 2656 
Q 1891 2656 2178 2843 
Q 2466 3031 2466 3422 
Q 2466 3731 2256 3934 
Q 2047 4138 1716 4138 
Q 1388 4138 1169 3931 
Q 950 3725 888 3313 
L 325 3413 
Q 428 3978 793 4289 
Q 1159 4600 1703 4600 
Q 2078 4600 2393 4439 
Q 2709 4278 2876 4000 
Q 3044 3722 3044 3409 
Q 3044 3113 2884 2869 
Q 2725 2625 2413 2481 
Q 2819 2388 3044 2092 
Q 3269 1797 3269 1353 
Q 3269 753 2831 336 
Q 2394 -81 1725 -81 
Q 1122 -81 723 278 
Q 325 638 269 1209 
z
" transform="scale(0.015625)"/>
       </defs>
       <use xlink:href="#ArialMT-33"/>
       <use xlink:href="#ArialMT-30" x="55.615234"/>
      </g>
     </g>
    </g>
    <g id="xtick_5">
     <g id="line2d_5">
      <path d="M 246.981818 307.584 
L 246.981818 41.472 
" clip-path="url(#p2cce2197e2)" style="fill: none; stroke: #ffffff; stroke-linecap: round"/>
     </g>
     <g id="text_5">
      <!-- 40 -->
      <g style="fill: #262626" transform="translate(240.864787 324.957594) scale(0.11 -0.11)">
       <defs>
        <path id="ArialMT-34" d="M 2069 0 
L 2069 1097 
L 81 1097 
L 81 1613 
L 2172 4581 
L 2631 4581 
L 2631 1613 
L 3250 1613 
L 3250 1097 
L 2631 1097 
L 2631 0 
L 2069 0 
z
M 2069 1613 
L 2069 3678 
L 634 1613 
L 2069 1613 
z
" transform="scale(0.015625)"/>
       </defs>
       <use xlink:href="#ArialMT-34"/>
       <use xlink:href="#ArialMT-30" x="55.615234"/>
      </g>
     </g>
    </g>
    <g id="xtick_6">
     <g id="line2d_6">
      <path d="M 290.269091 307.584 
L 290.269091 41.472 
" clip-path="url(#p2cce2197e2)" style="fill: none; stroke: #ffffff; stroke-linecap: round"/>
     </g>
     <g id="text_6">
      <!-- 50 -->
      <g style="fill: #262626" transform="translate(284.15206 324.957594) scale(0.11 -0.11)">
       <defs>
        <path id="ArialMT-35" d="M 266 1200 
L 856 1250 
Q 922 819 1161 601 
Q 1400 384 1738 384 
Q 2144 384 2425 690 
Q 2706 997 2706 1503 
Q 2706 1984 2436 2262 
Q 2166 2541 1728 2541 
Q 1456 2541 1237 2417 
Q 1019 2294 894 2097 
L 366 2166 
L 809 4519 
L 3088 4519 
L 3088 3981 
L 1259 3981 
L 1013 2750 
Q 1425 3038 1878 3038 
Q 2478 3038 2890 2622 
Q 3303 2206 3303 1553 
Q 3303 931 2941 478 
Q 2500 -78 1738 -78 
Q 1113 -78 717 272 
Q 322 622 266 1200 
z
" transform="scale(0.015625)"/>
       </defs>
       <use xlink:href="#ArialMT-35"/>
       <use xlink:href="#ArialMT-30" x="55.615234"/>
      </g>
     </g>
    </g>
    <g id="xtick_7">
     <g id="line2d_7">
      <path d="M 333.556364 307.584 
L 333.556364 41.472 
" clip-path="url(#p2cce2197e2)" style="fill: none; stroke: #ffffff; stroke-linecap: round"/>
     </g>
     <g id="text_7">
      <!-- 60 -->
      <g style="fill: #262626" transform="translate(327.439332 324.957594) scale(0.11 -0.11)">
       <defs>
        <path id="ArialMT-36" d="M 3184 3459 
L 2625 3416 
Q 2550 3747 2413 3897 
Q 2184 4138 1850 4138 
Q 1581 4138 1378 3988 
Q 1113 3794 959 3422 
Q 806 3050 800 2363 
Q 1003 2672 1297 2822 
Q 1591 2972 1913 2972 
Q 2475 2972 2870 2558 
Q 3266 2144 3266 1488 
Q 3266 1056 3080 686 
Q 2894 316 2569 119 
Q 2244 -78 1831 -78 
Q 1128 -78 684 439 
Q 241 956 241 2144 
Q 241 3472 731 4075 
Q 1159 4600 1884 4600 
Q 2425 4600 2770 4297 
Q 3116 3994 3184 3459 
z
M 888 1484 
Q 888 1194 1011 928 
Q 1134 663 1356 523 
Q 1578 384 1822 384 
Q 2178 384 2434 671 
Q 2691 959 2691 1453 
Q 2691 1928 2437 2201 
Q 2184 2475 1800 2475 
Q 1419 2475 1153 2201 
Q 888 1928 888 1484 
z
" transform="scale(0.015625)"/>
       </defs>
       <use xlink:href="#ArialMT-36"/>
       <use xlink:href="#ArialMT-30" x="55.615234"/>
      </g>
     </g>
    </g>
    <g id="xtick_8">
     <g id="line2d_8">
      <path d="M 376.843636 307.584 
L 376.843636 41.472 
" clip-path="url(#p2cce2197e2)" style="fill: none; stroke: #ffffff; stroke-linecap: round"/>
     </g>
     <g id="text_8">
      <!-- 70 -->
      <g style="fill: #262626" transform="translate(370.726605 324.957594) scale(0.11 -0.11)">
       <defs>
        <path id="ArialMT-37" d="M 303 3981 
L 303 4522 
L 3269 4522 
L 3269 4084 
Q 2831 3619 2401 2847 
Q 1972 2075 1738 1259 
Q 1569 684 1522 0 
L 944 0 
Q 953 541 1156 1306 
Q 1359 2072 1739 2783 
Q 2119 3494 2547 3981 
L 303 3981 
z
" transform="scale(0.015625)"/>
       </defs>
       <use xlink:href="#ArialMT-37"/>
       <use xlink:href="#ArialMT-30" x="55.615234"/>
      </g>
     </g>
    </g>
   </g>
   <g id="matplotlib.axis_2">
    <g id="ytick_1">
     <g id="line2d_9">
      <path d="M 57.6 284.655761 
L 414.72 284.655761 
" clip-path="url(#p2cce2197e2)" style="fill: none; stroke: #ffffff; stroke-linecap: round"/>
     </g>
     <g id="text_9">
      <!-- 0.0 -->
      <g style="fill: #262626" transform="translate(32.81 288.592558) scale(0.11 -0.11)">
       <defs>
        <path id="ArialMT-2e" d="M 581 0 
L 581 641 
L 1222 641 
L 1222 0 
L 581 0 
z
" transform="scale(0.015625)"/>
       </defs>
       <use xlink:href="#ArialMT-30"/>
       <use xlink:href="#ArialMT-2e" x="55.615234"/>
       <use xlink:href="#ArialMT-30" x="83.398438"/>
      </g>
     </g>
    </g>
    <g id="ytick_2">
     <g id="line2d_10">
      <path d="M 57.6 246.647906 
L 414.72 246.647906 
" clip-path="url(#p2cce2197e2)" style="fill: none; stroke: #ffffff; stroke-linecap: round"/>
     </g>
     <g id="text_10">
      <!-- 0.2 -->
      <g style="fill: #262626" transform="translate(32.81 250.584703) scale(0.11 -0.11)">
       <use xlink:href="#ArialMT-30"/>
       <use xlink:href="#ArialMT-2e" x="55.615234"/>
       <use xlink:href="#ArialMT-32" x="83.398438"/>
      </g>
     </g>
    </g>
    <g id="ytick_3">
     <g id="line2d_11">
      <path d="M 57.6 208.64005 
L 414.72 208.64005 
" clip-path="url(#p2cce2197e2)" style="fill: none; stroke: #ffffff; stroke-linecap: round"/>
     </g>
     <g id="text_11">
      <!-- 0.4 -->
      <g style="fill: #262626" transform="translate(32.81 212.576847) scale(0.11 -0.11)">
       <use xlink:href="#ArialMT-30"/>
       <use xlink:href="#ArialMT-2e" x="55.615234"/>
       <use xlink:href="#ArialMT-34" x="83.398438"/>
      </g>
     </g>
    </g>
    <g id="ytick_4">
     <g id="line2d_12">
      <path d="M 57.6 170.632195 
L 414.72 170.632195 
" clip-path="url(#p2cce2197e2)" style="fill: none; stroke: #ffffff; stroke-linecap: round"/>
     </g>
     <g id="text_12">
      <!-- 0.6 -->
      <g style="fill: #262626" transform="translate(32.81 174.568992) scale(0.11 -0.11)">
       <use xlink:href="#ArialMT-30"/>
       <use xlink:href="#ArialMT-2e" x="55.615234"/>
       <use xlink:href="#ArialMT-36" x="83.398438"/>
      </g>
     </g>
    </g>
    <g id="ytick_5">
     <g id="line2d_13">
      <path d="M 57.6 132.624339 
L 414.72 132.624339 
" clip-path="url(#p2cce2197e2)" style="fill: none; stroke: #ffffff; stroke-linecap: round"/>
     </g>
     <g id="text_13">
      <!-- 0.8 -->
      <g style="fill: #262626" transform="translate(32.81 136.561136) scale(0.11 -0.11)">
       <defs>
        <path id="ArialMT-38" d="M 1131 2484 
Q 781 2613 612 2850 
Q 444 3088 444 3419 
Q 444 3919 803 4259 
Q 1163 4600 1759 4600 
Q 2359 4600 2725 4251 
Q 3091 3903 3091 3403 
Q 3091 3084 2923 2848 
Q 2756 2613 2416 2484 
Q 2838 2347 3058 2040 
Q 3278 1734 3278 1309 
Q 3278 722 2862 322 
Q 2447 -78 1769 -78 
Q 1091 -78 675 323 
Q 259 725 259 1325 
Q 259 1772 486 2073 
Q 713 2375 1131 2484 
z
M 1019 3438 
Q 1019 3113 1228 2906 
Q 1438 2700 1772 2700 
Q 2097 2700 2305 2904 
Q 2513 3109 2513 3406 
Q 2513 3716 2298 3927 
Q 2084 4138 1766 4138 
Q 1444 4138 1231 3931 
Q 1019 3725 1019 3438 
z
M 838 1322 
Q 838 1081 952 856 
Q 1066 631 1291 507 
Q 1516 384 1775 384 
Q 2178 384 2440 643 
Q 2703 903 2703 1303 
Q 2703 1709 2433 1975 
Q 2163 2241 1756 2241 
Q 1359 2241 1098 1978 
Q 838 1716 838 1322 
z
" transform="scale(0.015625)"/>
       </defs>
       <use xlink:href="#ArialMT-30"/>
       <use xlink:href="#ArialMT-2e" x="55.615234"/>
       <use xlink:href="#ArialMT-38" x="83.398438"/>
      </g>
     </g>
    </g>
    <g id="ytick_6">
     <g id="line2d_14">
      <path d="M 57.6 94.616484 
L 414.72 94.616484 
" clip-path="url(#p2cce2197e2)" style="fill: none; stroke: #ffffff; stroke-linecap: round"/>
     </g>
     <g id="text_14">
      <!-- 1.0 -->
      <g style="fill: #262626" transform="translate(32.81 98.553281) scale(0.11 -0.11)">
       <use xlink:href="#ArialMT-31"/>
       <use xlink:href="#ArialMT-2e" x="55.615234"/>
       <use xlink:href="#ArialMT-30" x="83.398438"/>
      </g>
     </g>
    </g>
    <g id="ytick_7">
     <g id="line2d_15">
      <path d="M 57.6 56.608628 
L 414.72 56.608628 
" clip-path="url(#p2cce2197e2)" style="fill: none; stroke: #ffffff; stroke-linecap: round"/>
     </g>
     <g id="text_15">
      <!-- 1.2 -->
      <g style="fill: #262626" transform="translate(32.81 60.545425) scale(0.11 -0.11)">
       <use xlink:href="#ArialMT-31"/>
       <use xlink:href="#ArialMT-2e" x="55.615234"/>
       <use xlink:href="#ArialMT-32" x="83.398438"/>
      </g>
     </g>
    </g>
    <g id="text_16">
     <!-- total_reward -->
     <g style="fill: #262626" transform="translate(26.425 207.543) rotate(-90) scale(0.12 -0.12)">
      <defs>
       <path id="ArialMT-74" d="M 1650 503 
L 1731 6 
Q 1494 -44 1306 -44 
Q 1000 -44 831 53 
Q 663 150 594 308 
Q 525 466 525 972 
L 525 2881 
L 113 2881 
L 113 3319 
L 525 3319 
L 525 4141 
L 1084 4478 
L 1084 3319 
L 1650 3319 
L 1650 2881 
L 1084 2881 
L 1084 941 
Q 1084 700 1114 631 
Q 1144 563 1211 522 
Q 1278 481 1403 481 
Q 1497 481 1650 503 
z
" transform="scale(0.015625)"/>
       <path id="ArialMT-6f" d="M 213 1659 
Q 213 2581 725 3025 
Q 1153 3394 1769 3394 
Q 2453 3394 2887 2945 
Q 3322 2497 3322 1706 
Q 3322 1066 3130 698 
Q 2938 331 2570 128 
Q 2203 -75 1769 -75 
Q 1072 -75 642 372 
Q 213 819 213 1659 
z
M 791 1659 
Q 791 1022 1069 705 
Q 1347 388 1769 388 
Q 2188 388 2466 706 
Q 2744 1025 2744 1678 
Q 2744 2294 2464 2611 
Q 2184 2928 1769 2928 
Q 1347 2928 1069 2612 
Q 791 2297 791 1659 
z
" transform="scale(0.015625)"/>
       <path id="ArialMT-61" d="M 2588 409 
Q 2275 144 1986 34 
Q 1697 -75 1366 -75 
Q 819 -75 525 192 
Q 231 459 231 875 
Q 231 1119 342 1320 
Q 453 1522 633 1644 
Q 813 1766 1038 1828 
Q 1203 1872 1538 1913 
Q 2219 1994 2541 2106 
Q 2544 2222 2544 2253 
Q 2544 2597 2384 2738 
Q 2169 2928 1744 2928 
Q 1347 2928 1158 2789 
Q 969 2650 878 2297 
L 328 2372 
Q 403 2725 575 2942 
Q 747 3159 1072 3276 
Q 1397 3394 1825 3394 
Q 2250 3394 2515 3294 
Q 2781 3194 2906 3042 
Q 3031 2891 3081 2659 
Q 3109 2516 3109 2141 
L 3109 1391 
Q 3109 606 3145 398 
Q 3181 191 3288 0 
L 2700 0 
Q 2613 175 2588 409 
z
M 2541 1666 
Q 2234 1541 1622 1453 
Q 1275 1403 1131 1340 
Q 988 1278 909 1158 
Q 831 1038 831 891 
Q 831 666 1001 516 
Q 1172 366 1500 366 
Q 1825 366 2078 508 
Q 2331 650 2450 897 
Q 2541 1088 2541 1459 
L 2541 1666 
z
" transform="scale(0.015625)"/>
       <path id="ArialMT-6c" d="M 409 0 
L 409 4581 
L 972 4581 
L 972 0 
L 409 0 
z
" transform="scale(0.015625)"/>
       <path id="ArialMT-5f" d="M -97 -1272 
L -97 -866 
L 3631 -866 
L 3631 -1272 
L -97 -1272 
z
" transform="scale(0.015625)"/>
       <path id="ArialMT-72" d="M 416 0 
L 416 3319 
L 922 3319 
L 922 2816 
Q 1116 3169 1280 3281 
Q 1444 3394 1641 3394 
Q 1925 3394 2219 3213 
L 2025 2691 
Q 1819 2813 1613 2813 
Q 1428 2813 1281 2702 
Q 1134 2591 1072 2394 
Q 978 2094 978 1738 
L 978 0 
L 416 0 
z
" transform="scale(0.015625)"/>
       <path id="ArialMT-65" d="M 2694 1069 
L 3275 997 
Q 3138 488 2766 206 
Q 2394 -75 1816 -75 
Q 1088 -75 661 373 
Q 234 822 234 1631 
Q 234 2469 665 2931 
Q 1097 3394 1784 3394 
Q 2450 3394 2872 2941 
Q 3294 2488 3294 1666 
Q 3294 1616 3291 1516 
L 816 1516 
Q 847 969 1125 678 
Q 1403 388 1819 388 
Q 2128 388 2347 550 
Q 2566 713 2694 1069 
z
M 847 1978 
L 2700 1978 
Q 2663 2397 2488 2606 
Q 2219 2931 1791 2931 
Q 1403 2931 1139 2672 
Q 875 2413 847 1978 
z
" transform="scale(0.015625)"/>
       <path id="ArialMT-77" d="M 1034 0 
L 19 3319 
L 600 3319 
L 1128 1403 
L 1325 691 
Q 1338 744 1497 1375 
L 2025 3319 
L 2603 3319 
L 3100 1394 
L 3266 759 
L 3456 1400 
L 4025 3319 
L 4572 3319 
L 3534 0 
L 2950 0 
L 2422 1988 
L 2294 2553 
L 1622 0 
L 1034 0 
z
" transform="scale(0.015625)"/>
       <path id="ArialMT-64" d="M 2575 0 
L 2575 419 
Q 2259 -75 1647 -75 
Q 1250 -75 917 144 
Q 584 363 401 755 
Q 219 1147 219 1656 
Q 219 2153 384 2558 
Q 550 2963 881 3178 
Q 1213 3394 1622 3394 
Q 1922 3394 2156 3267 
Q 2391 3141 2538 2938 
L 2538 4581 
L 3097 4581 
L 3097 0 
L 2575 0 
z
M 797 1656 
Q 797 1019 1065 703 
Q 1334 388 1700 388 
Q 2069 388 2326 689 
Q 2584 991 2584 1609 
Q 2584 2291 2321 2609 
Q 2059 2928 1675 2928 
Q 1300 2928 1048 2622 
Q 797 2316 797 1656 
z
" transform="scale(0.015625)"/>
      </defs>
      <use xlink:href="#ArialMT-74"/>
      <use xlink:href="#ArialMT-6f" x="27.783203"/>
      <use xlink:href="#ArialMT-74" x="83.398438"/>
      <use xlink:href="#ArialMT-61" x="111.181641"/>
      <use xlink:href="#ArialMT-6c" x="166.796875"/>
      <use xlink:href="#ArialMT-5f" x="189.013672"/>
      <use xlink:href="#ArialMT-72" x="244.628906"/>
      <use xlink:href="#ArialMT-65" x="277.929688"/>
      <use xlink:href="#ArialMT-77" x="333.544922"/>
      <use xlink:href="#ArialMT-61" x="405.761719"/>
      <use xlink:href="#ArialMT-72" x="461.376953"/>
      <use xlink:href="#ArialMT-64" x="494.677734"/>
     </g>
    </g>
   </g>
   <g id="PathCollection_1">
    <defs>
     <path id="C0_0_b163b0d28e" d="M 0 3 
C 0.795609 3 1.55874 2.683901 2.12132 2.12132 
C 2.683901 1.55874 3 0.795609 3 -0 
C 3 -0.795609 2.683901 -1.55874 2.12132 -2.12132 
C 1.55874 -2.683901 0.795609 -3 0 -3 
C -0.795609 -3 -1.55874 -2.683901 -2.12132 -2.12132 
C -2.683901 -1.55874 -3 -0.795609 -3 0 
C -3 0.795609 -2.683901 1.55874 -2.12132 2.12132 
C -1.55874 2.683901 -0.795609 3 0 3 
z
"/>
    </defs>
    <g clip-path="url(#p2cce2197e2)">
     <use xlink:href="#C0_0_b163b0d28e" x="73.832727" y="293.549599" style="fill: #cf90a2; stroke: #ffffff; stroke-width: 0.48"/>
    </g>
    <g clip-path="url(#p2cce2197e2)">
     <use xlink:href="#C0_0_b163b0d28e" x="78.161455" y="291.915262" style="fill: #b67395; stroke: #ffffff; stroke-width: 0.48"/>
    </g>
    <g clip-path="url(#p2cce2197e2)">
     <use xlink:href="#C0_0_b163b0d28e" x="82.490182" y="291.725222" style="fill: #985987; stroke: #ffffff; stroke-width: 0.48"/>
    </g>
    <g clip-path="url(#p2cce2197e2)">
     <use xlink:href="#C0_0_b163b0d28e" x="86.818909" y="277.662316" style="fill: #2d1e3e; stroke: #ffffff; stroke-width: 0.48"/>
    </g>
    <g clip-path="url(#p2cce2197e2)">
     <use xlink:href="#C0_0_b163b0d28e" x="91.147636" y="293.283544" style="fill: #b77495; stroke: #ffffff; stroke-width: 0.48"/>
    </g>
    <g clip-path="url(#p2cce2197e2)">
     <use xlink:href="#C0_0_b163b0d28e" x="95.476364" y="288.152484" style="fill: #965886; stroke: #ffffff; stroke-width: 0.48"/>
    </g>
    <g clip-path="url(#p2cce2197e2)">
     <use xlink:href="#C0_0_b163b0d28e" x="99.805091" y="291.915262" style="fill: #724274; stroke: #ffffff; stroke-width: 0.48"/>
    </g>
    <g clip-path="url(#p2cce2197e2)">
     <use xlink:href="#C0_0_b163b0d28e" x="104.133818" y="54.366165" style="fill: #b37093; stroke: #ffffff; stroke-width: 0.48"/>
    </g>
    <g clip-path="url(#p2cce2197e2)">
     <use xlink:href="#C0_0_b163b0d28e" x="108.462545" y="292.29534" style="fill: #925684; stroke: #ffffff; stroke-width: 0.48"/>
    </g>
    <g clip-path="url(#p2cce2197e2)">
     <use xlink:href="#C0_0_b163b0d28e" x="112.791273" y="291.307136" style="fill: #edd0ca; stroke: #ffffff; stroke-width: 0.48"/>
    </g>
    <g clip-path="url(#p2cce2197e2)">
     <use xlink:href="#C0_0_b163b0d28e" x="117.12" y="295.488" style="fill: #cb8aa0; stroke: #ffffff; stroke-width: 0.48"/>
    </g>
    <g clip-path="url(#p2cce2197e2)">
     <use xlink:href="#C0_0_b163b0d28e" x="121.448727" y="292.105301" style="fill: #b16e92; stroke: #ffffff; stroke-width: 0.48"/>
    </g>
    <g clip-path="url(#p2cce2197e2)">
     <use xlink:href="#C0_0_b163b0d28e" x="125.777455" y="290.546979" style="fill: #6f4172; stroke: #ffffff; stroke-width: 0.48"/>
    </g>
    <g clip-path="url(#p2cce2197e2)">
     <use xlink:href="#C0_0_b163b0d28e" x="130.106182" y="292.333348" style="fill: #e0afb3; stroke: #ffffff; stroke-width: 0.48"/>
    </g>
    <g clip-path="url(#p2cce2197e2)">
     <use xlink:href="#C0_0_b163b0d28e" x="134.434909" y="293.625615" style="fill: #c8879e; stroke: #ffffff; stroke-width: 0.48"/>
    </g>
    <g clip-path="url(#p2cce2197e2)">
     <use xlink:href="#C0_0_b163b0d28e" x="138.763636" y="290.128892" style="fill: #9b5c89; stroke: #ffffff; stroke-width: 0.48"/>
    </g>
    <g clip-path="url(#p2cce2197e2)">
     <use xlink:href="#C0_0_b163b0d28e" x="143.092364" y="292.675419" style="fill: #774576; stroke: #ffffff; stroke-width: 0.48"/>
    </g>
    <g clip-path="url(#p2cce2197e2)">
     <use xlink:href="#C0_0_b163b0d28e" x="147.421091" y="291.915262" style="fill: #e4b9b9; stroke: #ffffff; stroke-width: 0.48"/>
    </g>
    <g clip-path="url(#p2cce2197e2)">
     <use xlink:href="#C0_0_b163b0d28e" x="151.749818" y="290.737018" style="fill: #c2809b; stroke: #ffffff; stroke-width: 0.48"/>
    </g>
    <g clip-path="url(#p2cce2197e2)">
     <use xlink:href="#C0_0_b163b0d28e" x="156.078545" y="291.915262" style="fill: #a7658e; stroke: #ffffff; stroke-width: 0.48"/>
    </g>
    <g clip-path="url(#p2cce2197e2)">
     <use xlink:href="#C0_0_b163b0d28e" x="160.407273" y="287.69639" style="fill: #7f497b; stroke: #ffffff; stroke-width: 0.48"/>
    </g>
    <g clip-path="url(#p2cce2197e2)">
     <use xlink:href="#C0_0_b163b0d28e" x="164.736" y="289.482759" style="fill: #e3b5b7; stroke: #ffffff; stroke-width: 0.48"/>
    </g>
    <g clip-path="url(#p2cce2197e2)">
     <use xlink:href="#C0_0_b163b0d28e" x="169.064727" y="250.866778" style="fill: #c3819c; stroke: #ffffff; stroke-width: 0.48"/>
    </g>
    <g clip-path="url(#p2cce2197e2)">
     <use xlink:href="#C0_0_b163b0d28e" x="173.393455" y="287.848421" style="fill: #a2618c; stroke: #ffffff; stroke-width: 0.48"/>
    </g>
    <g clip-path="url(#p2cce2197e2)">
     <use xlink:href="#C0_0_b163b0d28e" x="177.722182" y="292.713427" style="fill: #744375; stroke: #ffffff; stroke-width: 0.48"/>
    </g>
    <g clip-path="url(#p2cce2197e2)">
     <use xlink:href="#C0_0_b163b0d28e" x="182.050909" y="292.751434" style="fill: #e0afb3; stroke: #ffffff; stroke-width: 0.48"/>
    </g>
    <g clip-path="url(#p2cce2197e2)">
     <use xlink:href="#C0_0_b163b0d28e" x="186.379636" y="288.114476" style="fill: #c8879e; stroke: #ffffff; stroke-width: 0.48"/>
    </g>
    <g clip-path="url(#p2cce2197e2)">
     <use xlink:href="#C0_0_b163b0d28e" x="190.708364" y="291.915262" style="fill: #ae6b91; stroke: #ffffff; stroke-width: 0.48"/>
    </g>
    <g clip-path="url(#p2cce2197e2)">
     <use xlink:href="#C0_0_b163b0d28e" x="195.037091" y="292.257332" style="fill: #8c5181; stroke: #ffffff; stroke-width: 0.48"/>
    </g>
    <g clip-path="url(#p2cce2197e2)">
     <use xlink:href="#C0_0_b163b0d28e" x="199.365818" y="288.076468" style="fill: #ebcac5; stroke: #ffffff; stroke-width: 0.48"/>
    </g>
    <g clip-path="url(#p2cce2197e2)">
     <use xlink:href="#C0_0_b163b0d28e" x="203.694545" y="293.35956" style="fill: #d79ea9; stroke: #ffffff; stroke-width: 0.48"/>
    </g>
    <g clip-path="url(#p2cce2197e2)">
     <use xlink:href="#C0_0_b163b0d28e" x="208.023273" y="251.436896" style="fill: #a8668e; stroke: #ffffff; stroke-width: 0.48"/>
    </g>
    <g clip-path="url(#p2cce2197e2)">
     <use xlink:href="#C0_0_b163b0d28e" x="212.352" y="292.865458" style="fill: #754475; stroke: #ffffff; stroke-width: 0.48"/>
    </g>
    <g clip-path="url(#p2cce2197e2)">
     <use xlink:href="#C0_0_b163b0d28e" x="216.680727" y="292.485379" style="fill: #e4b8b8; stroke: #ffffff; stroke-width: 0.48"/>
    </g>
    <g clip-path="url(#p2cce2197e2)">
     <use xlink:href="#C0_0_b163b0d28e" x="221.009455" y="292.637411" style="fill: #d194a4; stroke: #ffffff; stroke-width: 0.48"/>
    </g>
    <g clip-path="url(#p2cce2197e2)">
     <use xlink:href="#C0_0_b163b0d28e" x="225.338182" y="292.865458" style="fill: #b57294; stroke: #ffffff; stroke-width: 0.48"/>
    </g>
    <g clip-path="url(#p2cce2197e2)">
     <use xlink:href="#C0_0_b163b0d28e" x="229.666909" y="291.459167" style="fill: #754475; stroke: #ffffff; stroke-width: 0.48"/>
    </g>
    <g clip-path="url(#p2cce2197e2)">
     <use xlink:href="#C0_0_b163b0d28e" x="233.995636" y="291.535183" style="fill: #e4b9b9; stroke: #ffffff; stroke-width: 0.48"/>
    </g>
    <g clip-path="url(#p2cce2197e2)">
     <use xlink:href="#C0_0_b163b0d28e" x="238.324364" y="291.725222" style="fill: #d397a6; stroke: #ffffff; stroke-width: 0.48"/>
    </g>
    <g clip-path="url(#p2cce2197e2)">
     <use xlink:href="#C0_0_b163b0d28e" x="242.653091" y="291.915262" style="fill: #bc7897; stroke: #ffffff; stroke-width: 0.48"/>
    </g>
    <g clip-path="url(#p2cce2197e2)">
     <use xlink:href="#C0_0_b163b0d28e" x="246.981818" y="292.485379" style="fill: #955786; stroke: #ffffff; stroke-width: 0.48"/>
    </g>
    <g clip-path="url(#p2cce2197e2)">
     <use xlink:href="#C0_0_b163b0d28e" x="251.310545" y="247.065992" style="fill: #4d2f5b; stroke: #ffffff; stroke-width: 0.48"/>
    </g>
    <g clip-path="url(#p2cce2197e2)">
     <use xlink:href="#C0_0_b163b0d28e" x="255.639273" y="248.548299" style="fill: #b97596; stroke: #ffffff; stroke-width: 0.48"/>
    </g>
    <g clip-path="url(#p2cce2197e2)">
     <use xlink:href="#C0_0_b163b0d28e" x="259.968" y="292.82745" style="fill: #965886; stroke: #ffffff; stroke-width: 0.48"/>
    </g>
    <g clip-path="url(#p2cce2197e2)">
     <use xlink:href="#C0_0_b163b0d28e" x="264.296727" y="293.89167" style="fill: #693d6f; stroke: #ffffff; stroke-width: 0.48"/>
    </g>
    <g clip-path="url(#p2cce2197e2)">
     <use xlink:href="#C0_0_b163b0d28e" x="268.625455" y="288.152484" style="fill: #e0afb3; stroke: #ffffff; stroke-width: 0.48"/>
    </g>
    <g clip-path="url(#p2cce2197e2)">
     <use xlink:href="#C0_0_b163b0d28e" x="272.954182" y="293.055497" style="fill: #cd8ea1; stroke: #ffffff; stroke-width: 0.48"/>
    </g>
    <g clip-path="url(#p2cce2197e2)">
     <use xlink:href="#C0_0_b163b0d28e" x="277.282909" y="292.447372" style="fill: #b16e92; stroke: #ffffff; stroke-width: 0.48"/>
    </g>
    <g clip-path="url(#p2cce2197e2)">
     <use xlink:href="#C0_0_b163b0d28e" x="281.611636" y="292.105301" style="fill: #915584; stroke: #ffffff; stroke-width: 0.48"/>
    </g>
    <g clip-path="url(#p2cce2197e2)">
     <use xlink:href="#C0_0_b163b0d28e" x="285.940364" y="53.568" style="fill: #c8879e; stroke: #ffffff; stroke-width: 0.48"/>
    </g>
    <g clip-path="url(#p2cce2197e2)">
     <use xlink:href="#C0_0_b163b0d28e" x="290.269091" y="295.107921" style="fill: #905483; stroke: #ffffff; stroke-width: 0.48"/>
    </g>
    <g clip-path="url(#p2cce2197e2)">
     <use xlink:href="#C0_0_b163b0d28e" x="294.597818" y="292.29534" style="fill: #edd1cb; stroke: #ffffff; stroke-width: 0.48"/>
    </g>
    <g clip-path="url(#p2cce2197e2)">
     <use xlink:href="#C0_0_b163b0d28e" x="298.926545" y="290.775026" style="fill: #d295a5; stroke: #ffffff; stroke-width: 0.48"/>
    </g>
    <g clip-path="url(#p2cce2197e2)">
     <use xlink:href="#C0_0_b163b0d28e" x="303.255273" y="293.245537" style="fill: #b57294; stroke: #ffffff; stroke-width: 0.48"/>
    </g>
    <g clip-path="url(#p2cce2197e2)">
     <use xlink:href="#C0_0_b163b0d28e" x="307.584" y="288.494555" style="fill: #915584; stroke: #ffffff; stroke-width: 0.48"/>
    </g>
    <g clip-path="url(#p2cce2197e2)">
     <use xlink:href="#C0_0_b163b0d28e" x="311.912727" y="292.105301" style="fill: #edcfc9; stroke: #ffffff; stroke-width: 0.48"/>
    </g>
    <g clip-path="url(#p2cce2197e2)">
     <use xlink:href="#C0_0_b163b0d28e" x="316.241455" y="292.29534" style="fill: #dfacb1; stroke: #ffffff; stroke-width: 0.48"/>
    </g>
    <g clip-path="url(#p2cce2197e2)">
     <use xlink:href="#C0_0_b163b0d28e" x="320.570182" y="291.535183" style="fill: #cb8ca0; stroke: #ffffff; stroke-width: 0.48"/>
    </g>
    <g clip-path="url(#p2cce2197e2)">
     <use xlink:href="#C0_0_b163b0d28e" x="324.898909" y="291.725222" style="fill: #b16e92; stroke: #ffffff; stroke-width: 0.48"/>
    </g>
    <g clip-path="url(#p2cce2197e2)">
     <use xlink:href="#C0_0_b163b0d28e" x="329.227636" y="292.637411" style="fill: #8a5081; stroke: #ffffff; stroke-width: 0.48"/>
    </g>
    <g clip-path="url(#p2cce2197e2)">
     <use xlink:href="#C0_0_b163b0d28e" x="333.556364" y="287.468342" style="fill: #e9c4c1; stroke: #ffffff; stroke-width: 0.48"/>
    </g>
    <g clip-path="url(#p2cce2197e2)">
     <use xlink:href="#C0_0_b163b0d28e" x="337.885091" y="281.957203" style="fill: #c8879e; stroke: #ffffff; stroke-width: 0.48"/>
    </g>
    <g clip-path="url(#p2cce2197e2)">
     <use xlink:href="#C0_0_b163b0d28e" x="342.213818" y="289.178696" style="fill: #a1608b; stroke: #ffffff; stroke-width: 0.48"/>
    </g>
    <g clip-path="url(#p2cce2197e2)">
     <use xlink:href="#C0_0_b163b0d28e" x="346.542545" y="292.219324" style="fill: #754475; stroke: #ffffff; stroke-width: 0.48"/>
    </g>
    <g clip-path="url(#p2cce2197e2)">
     <use xlink:href="#C0_0_b163b0d28e" x="350.871273" y="292.105301" style="fill: #e5baba; stroke: #ffffff; stroke-width: 0.48"/>
    </g>
    <g clip-path="url(#p2cce2197e2)">
     <use xlink:href="#C0_0_b163b0d28e" x="355.2" y="292.865458" style="fill: #d194a4; stroke: #ffffff; stroke-width: 0.48"/>
    </g>
    <g clip-path="url(#p2cce2197e2)">
     <use xlink:href="#C0_0_b163b0d28e" x="359.528727" y="286.404123" style="fill: #a7658e; stroke: #ffffff; stroke-width: 0.48"/>
    </g>
    <g clip-path="url(#p2cce2197e2)">
     <use xlink:href="#C0_0_b163b0d28e" x="363.857455" y="290.394947" style="fill: #613969; stroke: #ffffff; stroke-width: 0.48"/>
    </g>
    <g clip-path="url(#p2cce2197e2)">
     <use xlink:href="#C0_0_b163b0d28e" x="368.186182" y="244.367434" style="fill: #d093a4; stroke: #ffffff; stroke-width: 0.48"/>
    </g>
    <g clip-path="url(#p2cce2197e2)">
     <use xlink:href="#C0_0_b163b0d28e" x="372.514909" y="287.544358" style="fill: #b97596; stroke: #ffffff; stroke-width: 0.48"/>
    </g>
    <g clip-path="url(#p2cce2197e2)">
     <use xlink:href="#C0_0_b163b0d28e" x="376.843636" y="292.675419" style="fill: #9a5b88; stroke: #ffffff; stroke-width: 0.48"/>
    </g>
    <g clip-path="url(#p2cce2197e2)">
     <use xlink:href="#C0_0_b163b0d28e" x="381.172364" y="287.50635" style="fill: #714173; stroke: #ffffff; stroke-width: 0.48"/>
    </g>
    <g clip-path="url(#p2cce2197e2)">
     <use xlink:href="#C0_0_b163b0d28e" x="385.501091" y="292.105301" style="fill: #e3b5b7; stroke: #ffffff; stroke-width: 0.48"/>
    </g>
    <g clip-path="url(#p2cce2197e2)">
     <use xlink:href="#C0_0_b163b0d28e" x="389.829818" y="288.836625" style="fill: #cf90a2; stroke: #ffffff; stroke-width: 0.48"/>
    </g>
    <g clip-path="url(#p2cce2197e2)">
     <use xlink:href="#C0_0_b163b0d28e" x="394.158545" y="291.535183" style="fill: #b67395; stroke: #ffffff; stroke-width: 0.48"/>
    </g>
   </g>
   <g id="PolyCollection_1"/>
   <g id="line2d_16"/>
   <g id="line2d_17"/>
   <g id="line2d_18"/>
   <g id="line2d_19"/>
   <g id="line2d_20"/>
   <g id="line2d_21">
    <path d="M 73.832727 284.655761 
L 78.161455 284.655761 
L 82.490182 284.655761 
L 86.818909 284.655761 
L 91.147636 284.655761 
L 95.476364 266.617233 
L 99.805091 266.811073 
L 104.133818 266.830077 
L 108.462545 266.712253 
L 112.791273 268.179356 
L 117.12 268.213563 
L 121.448727 268.411204 
L 125.777455 268.487219 
L 130.106182 292.242129 
L 134.434909 292.086297 
L 138.763636 292.14711 
L 143.092364 291.367948 
L 147.421091 291.105694 
L 151.749818 287.137674 
L 156.078545 286.689181 
L 160.407273 286.597963 
L 164.736 286.860217 
L 169.064727 286.404123 
L 173.393455 286.404123 
L 177.722182 286.556154 
L 182.050909 286.172275 
L 186.379636 286.738592 
L 190.708364 282.934005 
L 195.037091 287.133873 
L 199.365818 287.597569 
L 203.694545 287.589968 
L 208.023273 287.60137 
L 212.352 287.935839 
L 216.680727 287.897831 
L 221.009455 287.84462 
L 225.338182 288.2285 
L 229.666909 288.141082 
L 233.995636 287.703991 
L 238.324364 283.272275 
L 242.653091 283.306482 
L 246.981818 283.431908 
L 251.310545 282.960611 
L 255.639273 283.120244 
L 259.968 283.211463 
L 264.296727 283.249471 
L 268.625455 259.414744 
L 272.954182 259.676999 
L 277.282909 264.199933 
L 281.611636 268.422606 
L 285.940364 268.464415 
L 290.269091 267.924703 
L 294.597818 268.319985 
L 298.926545 268.243969 
L 303.255273 268.15275 
L 307.584 268.114742 
L 311.912727 292.021684 
L 316.241455 291.257726 
L 320.570182 290.223912 
L 324.898909 290.064279 
L 329.227636 289.961658 
L 333.556364 290.322732 
L 337.885091 290.398748 
L 342.213818 289.809626 
L 346.542545 289.695603 
L 350.871273 284.959824 
L 355.2 284.450519 
L 359.528727 284.971226 
L 363.857455 285.526141 
L 368.186182 285.818802 
L 372.514909 285.480532 
L 376.843636 285.42352 
L 381.172364 284.655761 
L 385.501091 284.655761 
L 389.829818 284.655761 
L 394.158545 284.655761 
L 398.487273 284.655761 
" clip-path="url(#p2cce2197e2)" style="fill: none; stroke: #4c72b0; stroke-width: 1.5; stroke-linecap: round"/>
   </g>
   <g id="patch_3">
    <path d="M 57.6 307.584 
L 57.6 41.472 
" style="fill: none; stroke: #ffffff; stroke-width: 1.25; stroke-linejoin: miter; stroke-linecap: square"/>
   </g>
   <g id="patch_4">
    <path d="M 414.72 307.584 
L 414.72 41.472 
" style="fill: none; stroke: #ffffff; stroke-width: 1.25; stroke-linejoin: miter; stroke-linecap: square"/>
   </g>
   <g id="patch_5">
    <path d="M 57.6 307.584 
L 414.72 307.584 
" style="fill: none; stroke: #ffffff; stroke-width: 1.25; stroke-linejoin: miter; stroke-linecap: square"/>
   </g>
   <g id="patch_6">
    <path d="M 57.6 41.472 
L 414.72 41.472 
" style="fill: none; stroke: #ffffff; stroke-width: 1.25; stroke-linejoin: miter; stroke-linecap: square"/>
   </g>
   <g id="legend_1">
    <g id="patch_7">
     <path d="M 347.351875 128.071219 
L 407.02 128.071219 
Q 409.22 128.071219 409.22 125.871219 
L 409.22 49.172 
Q 409.22 46.972 407.02 46.972 
L 347.351875 46.972 
Q 345.151875 46.972 345.151875 49.172 
L 345.151875 125.871219 
Q 345.151875 128.071219 347.351875 128.071219 
z
" style="fill: #eaeaf2; opacity: 0.8; stroke: #cccccc; stroke-linejoin: miter"/>
    </g>
    <g id="line2d_22">
     <defs>
      <path id="m1092e994e6" d="M 0 3 
C 0.795609 3 1.55874 2.683901 2.12132 2.12132 
C 2.683901 1.55874 3 0.795609 3 0 
C 3 -0.795609 2.683901 -1.55874 2.12132 -2.12132 
C 1.55874 -2.683901 0.795609 -3 0 -3 
C -0.795609 -3 -1.55874 -2.683901 -2.12132 -2.12132 
C -2.683901 -1.55874 -3 -0.795609 -3 0 
C -3 0.795609 -2.683901 1.55874 -2.12132 2.12132 
C -1.55874 2.683901 -0.795609 3 0 3 
z
" style="stroke: #ffffff; stroke-width: 0.48"/>
     </defs>
     <g>
      <use xlink:href="#m1092e994e6" x="360.551875" y="55.395594" style="fill: #e7c1be; stroke: #ffffff; stroke-width: 0.48"/>
     </g>
    </g>
    <g id="text_17">
     <!-- 1500 -->
     <g style="fill: #262626" transform="translate(380.351875 59.245594) scale(0.11 -0.11)">
      <use xlink:href="#ArialMT-31"/>
      <use xlink:href="#ArialMT-35" x="55.615234"/>
      <use xlink:href="#ArialMT-30" x="111.230469"/>
      <use xlink:href="#ArialMT-30" x="166.845703"/>
     </g>
    </g>
    <g id="line2d_23">
     <defs>
      <path id="m862c05ae44" d="M 0 3 
C 0.795609 3 1.55874 2.683901 2.12132 2.12132 
C 2.683901 1.55874 3 0.795609 3 0 
C 3 -0.795609 2.683901 -1.55874 2.12132 -2.12132 
C 1.55874 -2.683901 0.795609 -3 0 -3 
C -0.795609 -3 -1.55874 -2.683901 -2.12132 -2.12132 
C -2.683901 -1.55874 -3 -0.795609 -3 0 
C -3 0.795609 -2.683901 1.55874 -2.12132 2.12132 
C -1.55874 2.683901 -0.795609 3 0 3 
z
" style="stroke: #ffffff; stroke-width: 0.48"/>
     </defs>
     <g>
      <use xlink:href="#m862c05ae44" x="360.551875" y="70.955437" style="fill: #ce8fa2; stroke: #ffffff; stroke-width: 0.48"/>
     </g>
    </g>
    <g id="text_18">
     <!-- 3000 -->
     <g style="fill: #262626" transform="translate(380.351875 74.805437) scale(0.11 -0.11)">
      <use xlink:href="#ArialMT-33"/>
      <use xlink:href="#ArialMT-30" x="55.615234"/>
      <use xlink:href="#ArialMT-30" x="111.230469"/>
      <use xlink:href="#ArialMT-30" x="166.845703"/>
     </g>
    </g>
    <g id="line2d_24">
     <defs>
      <path id="mfe2b4302c8" d="M 0 3 
C 0.795609 3 1.55874 2.683901 2.12132 2.12132 
C 2.683901 1.55874 3 0.795609 3 0 
C 3 -0.795609 2.683901 -1.55874 2.12132 -2.12132 
C 1.55874 -2.683901 0.795609 -3 0 -3 
C -0.795609 -3 -1.55874 -2.683901 -2.12132 -2.12132 
C -2.683901 -1.55874 -3 -0.795609 -3 0 
C -3 0.795609 -2.683901 1.55874 -2.12132 2.12132 
C -1.55874 2.683901 -0.795609 3 0 3 
z
" style="stroke: #ffffff; stroke-width: 0.48"/>
     </defs>
     <g>
      <use xlink:href="#mfe2b4302c8" x="360.551875" y="86.515281" style="fill: #a4638d; stroke: #ffffff; stroke-width: 0.48"/>
     </g>
    </g>
    <g id="text_19">
     <!-- 4500 -->
     <g style="fill: #262626" transform="translate(380.351875 90.365281) scale(0.11 -0.11)">
      <use xlink:href="#ArialMT-34"/>
      <use xlink:href="#ArialMT-35" x="55.615234"/>
      <use xlink:href="#ArialMT-30" x="111.230469"/>
      <use xlink:href="#ArialMT-30" x="166.845703"/>
     </g>
    </g>
    <g id="line2d_25">
     <defs>
      <path id="m1bbf4275d1" d="M 0 3 
C 0.795609 3 1.55874 2.683901 2.12132 2.12132 
C 2.683901 1.55874 3 0.795609 3 0 
C 3 -0.795609 2.683901 -1.55874 2.12132 -2.12132 
C 1.55874 -2.683901 0.795609 -3 0 -3 
C -0.795609 -3 -1.55874 -2.683901 -2.12132 -2.12132 
C -2.683901 -1.55874 -3 -0.795609 -3 0 
C -3 0.795609 -2.683901 1.55874 -2.12132 2.12132 
C -1.55874 2.683901 -0.795609 3 0 3 
z
" style="stroke: #ffffff; stroke-width: 0.48"/>
     </defs>
     <g>
      <use xlink:href="#m1bbf4275d1" x="360.551875" y="102.075125" style="fill: #6c3f70; stroke: #ffffff; stroke-width: 0.48"/>
     </g>
    </g>
    <g id="text_20">
     <!-- 6000 -->
     <g style="fill: #262626" transform="translate(380.351875 105.925125) scale(0.11 -0.11)">
      <use xlink:href="#ArialMT-36"/>
      <use xlink:href="#ArialMT-30" x="55.615234"/>
      <use xlink:href="#ArialMT-30" x="111.230469"/>
      <use xlink:href="#ArialMT-30" x="166.845703"/>
     </g>
    </g>
    <g id="line2d_26">
     <defs>
      <path id="mb01d73c389" d="M 0 3 
C 0.795609 3 1.55874 2.683901 2.12132 2.12132 
C 2.683901 1.55874 3 0.795609 3 0 
C 3 -0.795609 2.683901 -1.55874 2.12132 -2.12132 
C 1.55874 -2.683901 0.795609 -3 0 -3 
C -0.795609 -3 -1.55874 -2.683901 -2.12132 -2.12132 
C -2.683901 -1.55874 -3 -0.795609 -3 0 
C -3 0.795609 -2.683901 1.55874 -2.12132 2.12132 
C -1.55874 2.683901 -0.795609 3 0 3 
z
" style="stroke: #ffffff; stroke-width: 0.48"/>
     </defs>
     <g>
      <use xlink:href="#mb01d73c389" x="360.551875" y="117.634969" style="fill: #312042; stroke: #ffffff; stroke-width: 0.48"/>
     </g>
    </g>
    <g id="text_21">
     <!-- 7500 -->
     <g style="fill: #262626" transform="translate(380.351875 121.484969) scale(0.11 -0.11)">
      <use xlink:href="#ArialMT-37"/>
      <use xlink:href="#ArialMT-35" x="55.615234"/>
      <use xlink:href="#ArialMT-30" x="111.230469"/>
      <use xlink:href="#ArialMT-30" x="166.845703"/>
     </g>
    </g>
   </g>
  </g>
 </g>
 <defs>
  <clipPath id="p2cce2197e2">
   <rect x="57.6" y="41.472" width="357.12" height="266.112"/>
  </clipPath>
 </defs>
</svg>
