<?xml version="1.0" encoding="utf-8" standalone="no"?>
<!DOCTYPE svg PUBLIC "-//W3C//DTD SVG 1.1//EN"
  "http://www.w3.org/Graphics/SVG/1.1/DTD/svg11.dtd">
<svg xmlns:xlink="http://www.w3.org/1999/xlink" width="460.8pt" height="345.6pt" viewBox="0 0 460.8 345.6" xmlns="http://www.w3.org/2000/svg" version="1.1">
 <metadata>
  <rdf:RDF xmlns:dc="http://purl.org/dc/elements/1.1/" xmlns:cc="http://creativecommons.org/ns#" xmlns:rdf="http://www.w3.org/1999/02/22-rdf-syntax-ns#">
   <cc:Work>
    <dc:type rdf:resource="http://purl.org/dc/dcmitype/StillImage"/>
    <dc:date>2024-10-31T15:04:07.877558</dc:date>
    <dc:format>image/svg+xml</dc:format>
    <dc:creator>
     <cc:Agent>
      <dc:title>Matplotlib v3.8.4, https://matplotlib.org/</dc:title>
     </cc:Agent>
    </dc:creator>
   </cc:Work>
  </rdf:RDF>
 </metadata>
 <defs>
  <style type="text/css">*{stroke-linejoin: round; stroke-linecap: butt}</style>
 </defs>
 <g id="figure_1">
  <g id="patch_1">
   <path d="M 0 345.6 
L 460.8 345.6 
L 460.8 0 
L 0 0 
z
" style="fill: #ffffff"/>
  </g>
  <g id="axes_1">
   <g id="patch_2">
    <path d="M 57.6 307.584 
L 414.72 307.584 
L 414.72 41.472 
L 57.6 41.472 
z
" style="fill: #eaeaf2"/>
   </g>
   <g id="matplotlib.axis_1">
    <g id="xtick_1">
     <g id="line2d_1">
      <path d="M 77.961879 307.584 
L 77.961879 41.472 
" clip-path="url(#p7c439d1408)" style="fill: none; stroke: #ffffff; stroke-linecap: round"/>
     </g>
     <g id="text_1">
      <!-- 1000 -->
      <g style="fill: #262626" transform="translate(65.727816 324.957594) scale(0.11 -0.11)">
       <defs>
        <path id="ArialMT-31" d="M 2384 0 
L 1822 0 
L 1822 3584 
Q 1619 3391 1289 3197 
Q 959 3003 697 2906 
L 697 3450 
Q 1169 3672 1522 3987 
Q 1875 4303 2022 4600 
L 2384 4600 
L 2384 0 
z
" transform="scale(0.015625)"/>
        <path id="ArialMT-30" d="M 266 2259 
Q 266 3072 433 3567 
Q 600 4063 929 4331 
Q 1259 4600 1759 4600 
Q 2128 4600 2406 4451 
Q 2684 4303 2865 4023 
Q 3047 3744 3150 3342 
Q 3253 2941 3253 2259 
Q 3253 1453 3087 958 
Q 2922 463 2592 192 
Q 2263 -78 1759 -78 
Q 1097 -78 719 397 
Q 266 969 266 2259 
z
M 844 2259 
Q 844 1131 1108 757 
Q 1372 384 1759 384 
Q 2147 384 2411 759 
Q 2675 1134 2675 2259 
Q 2675 3391 2411 3762 
Q 2147 4134 1753 4134 
Q 1366 4134 1134 3806 
Q 844 3388 844 2259 
z
" transform="scale(0.015625)"/>
       </defs>
       <use xlink:href="#ArialMT-31"/>
       <use xlink:href="#ArialMT-30" x="55.615234"/>
       <use xlink:href="#ArialMT-30" x="111.230469"/>
       <use xlink:href="#ArialMT-30" x="166.845703"/>
      </g>
     </g>
    </g>
    <g id="xtick_2">
     <g id="line2d_2">
      <path d="M 129.576274 307.584 
L 129.576274 41.472 
" clip-path="url(#p7c439d1408)" style="fill: none; stroke: #ffffff; stroke-linecap: round"/>
     </g>
     <g id="text_2">
      <!-- 1500 -->
      <g style="fill: #262626" transform="translate(117.342212 324.957594) scale(0.11 -0.11)">
       <defs>
        <path id="ArialMT-35" d="M 266 1200 
L 856 1250 
Q 922 819 1161 601 
Q 1400 384 1738 384 
Q 2144 384 2425 690 
Q 2706 997 2706 1503 
Q 2706 1984 2436 2262 
Q 2166 2541 1728 2541 
Q 1456 2541 1237 2417 
Q 1019 2294 894 2097 
L 366 2166 
L 809 4519 
L 3088 4519 
L 3088 3981 
L 1259 3981 
L 1013 2750 
Q 1425 3038 1878 3038 
Q 2478 3038 2890 2622 
Q 3303 2206 3303 1553 
Q 3303 931 2941 478 
Q 2500 -78 1738 -78 
Q 1113 -78 717 272 
Q 322 622 266 1200 
z
" transform="scale(0.015625)"/>
       </defs>
       <use xlink:href="#ArialMT-31"/>
       <use xlink:href="#ArialMT-35" x="55.615234"/>
       <use xlink:href="#ArialMT-30" x="111.230469"/>
       <use xlink:href="#ArialMT-30" x="166.845703"/>
      </g>
     </g>
    </g>
    <g id="xtick_3">
     <g id="line2d_3">
      <path d="M 181.190669 307.584 
L 181.190669 41.472 
" clip-path="url(#p7c439d1408)" style="fill: none; stroke: #ffffff; stroke-linecap: round"/>
     </g>
     <g id="text_3">
      <!-- 2000 -->
      <g style="fill: #262626" transform="translate(168.956607 324.957594) scale(0.11 -0.11)">
       <defs>
        <path id="ArialMT-32" d="M 3222 541 
L 3222 0 
L 194 0 
Q 188 203 259 391 
Q 375 700 629 1000 
Q 884 1300 1366 1694 
Q 2113 2306 2375 2664 
Q 2638 3022 2638 3341 
Q 2638 3675 2398 3904 
Q 2159 4134 1775 4134 
Q 1369 4134 1125 3890 
Q 881 3647 878 3216 
L 300 3275 
Q 359 3922 746 4261 
Q 1134 4600 1788 4600 
Q 2447 4600 2831 4234 
Q 3216 3869 3216 3328 
Q 3216 3053 3103 2787 
Q 2991 2522 2730 2228 
Q 2469 1934 1863 1422 
Q 1356 997 1212 845 
Q 1069 694 975 541 
L 3222 541 
z
" transform="scale(0.015625)"/>
       </defs>
       <use xlink:href="#ArialMT-32"/>
       <use xlink:href="#ArialMT-30" x="55.615234"/>
       <use xlink:href="#ArialMT-30" x="111.230469"/>
       <use xlink:href="#ArialMT-30" x="166.845703"/>
      </g>
     </g>
    </g>
    <g id="xtick_4">
     <g id="line2d_4">
      <path d="M 232.805064 307.584 
L 232.805064 41.472 
" clip-path="url(#p7c439d1408)" style="fill: none; stroke: #ffffff; stroke-linecap: round"/>
     </g>
     <g id="text_4">
      <!-- 2500 -->
      <g style="fill: #262626" transform="translate(220.571002 324.957594) scale(0.11 -0.11)">
       <use xlink:href="#ArialMT-32"/>
       <use xlink:href="#ArialMT-35" x="55.615234"/>
       <use xlink:href="#ArialMT-30" x="111.230469"/>
       <use xlink:href="#ArialMT-30" x="166.845703"/>
      </g>
     </g>
    </g>
    <g id="xtick_5">
     <g id="line2d_5">
      <path d="M 284.419459 307.584 
L 284.419459 41.472 
" clip-path="url(#p7c439d1408)" style="fill: none; stroke: #ffffff; stroke-linecap: round"/>
     </g>
     <g id="text_5">
      <!-- 3000 -->
      <g style="fill: #262626" transform="translate(272.185397 324.957594) scale(0.11 -0.11)">
       <defs>
        <path id="ArialMT-33" d="M 269 1209 
L 831 1284 
Q 928 806 1161 595 
Q 1394 384 1728 384 
Q 2125 384 2398 659 
Q 2672 934 2672 1341 
Q 2672 1728 2419 1979 
Q 2166 2231 1775 2231 
Q 1616 2231 1378 2169 
L 1441 2663 
Q 1497 2656 1531 2656 
Q 1891 2656 2178 2843 
Q 2466 3031 2466 3422 
Q 2466 3731 2256 3934 
Q 2047 4138 1716 4138 
Q 1388 4138 1169 3931 
Q 950 3725 888 3313 
L 325 3413 
Q 428 3978 793 4289 
Q 1159 4600 1703 4600 
Q 2078 4600 2393 4439 
Q 2709 4278 2876 4000 
Q 3044 3722 3044 3409 
Q 3044 3113 2884 2869 
Q 2725 2625 2413 2481 
Q 2819 2388 3044 2092 
Q 3269 1797 3269 1353 
Q 3269 753 2831 336 
Q 2394 -81 1725 -81 
Q 1122 -81 723 278 
Q 325 638 269 1209 
z
" transform="scale(0.015625)"/>
       </defs>
       <use xlink:href="#ArialMT-33"/>
       <use xlink:href="#ArialMT-30" x="55.615234"/>
       <use xlink:href="#ArialMT-30" x="111.230469"/>
       <use xlink:href="#ArialMT-30" x="166.845703"/>
      </g>
     </g>
    </g>
    <g id="xtick_6">
     <g id="line2d_6">
      <path d="M 336.033855 307.584 
L 336.033855 41.472 
" clip-path="url(#p7c439d1408)" style="fill: none; stroke: #ffffff; stroke-linecap: round"/>
     </g>
     <g id="text_6">
      <!-- 3500 -->
      <g style="fill: #262626" transform="translate(323.799792 324.957594) scale(0.11 -0.11)">
       <use xlink:href="#ArialMT-33"/>
       <use xlink:href="#ArialMT-35" x="55.615234"/>
       <use xlink:href="#ArialMT-30" x="111.230469"/>
       <use xlink:href="#ArialMT-30" x="166.845703"/>
      </g>
     </g>
    </g>
    <g id="xtick_7">
     <g id="line2d_7">
      <path d="M 387.64825 307.584 
L 387.64825 41.472 
" clip-path="url(#p7c439d1408)" style="fill: none; stroke: #ffffff; stroke-linecap: round"/>
     </g>
     <g id="text_7">
      <!-- 4000 -->
      <g style="fill: #262626" transform="translate(375.414187 324.957594) scale(0.11 -0.11)">
       <defs>
        <path id="ArialMT-34" d="M 2069 0 
L 2069 1097 
L 81 1097 
L 81 1613 
L 2172 4581 
L 2631 4581 
L 2631 1613 
L 3250 1613 
L 3250 1097 
L 2631 1097 
L 2631 0 
L 2069 0 
z
M 2069 1613 
L 2069 3678 
L 634 1613 
L 2069 1613 
z
" transform="scale(0.015625)"/>
       </defs>
       <use xlink:href="#ArialMT-34"/>
       <use xlink:href="#ArialMT-30" x="55.615234"/>
       <use xlink:href="#ArialMT-30" x="111.230469"/>
       <use xlink:href="#ArialMT-30" x="166.845703"/>
      </g>
     </g>
    </g>
    <g id="text_8">
     <!-- episode_length -->
     <g style="fill: #262626" transform="translate(195.46125 339.733219) scale(0.12 -0.12)">
      <defs>
       <path id="ArialMT-65" d="M 2694 1069 
L 3275 997 
Q 3138 488 2766 206 
Q 2394 -75 1816 -75 
Q 1088 -75 661 373 
Q 234 822 234 1631 
Q 234 2469 665 2931 
Q 1097 3394 1784 3394 
Q 2450 3394 2872 2941 
Q 3294 2488 3294 1666 
Q 3294 1616 3291 1516 
L 816 1516 
Q 847 969 1125 678 
Q 1403 388 1819 388 
Q 2128 388 2347 550 
Q 2566 713 2694 1069 
z
M 847 1978 
L 2700 1978 
Q 2663 2397 2488 2606 
Q 2219 2931 1791 2931 
Q 1403 2931 1139 2672 
Q 875 2413 847 1978 
z
" transform="scale(0.015625)"/>
       <path id="ArialMT-70" d="M 422 -1272 
L 422 3319 
L 934 3319 
L 934 2888 
Q 1116 3141 1344 3267 
Q 1572 3394 1897 3394 
Q 2322 3394 2647 3175 
Q 2972 2956 3137 2557 
Q 3303 2159 3303 1684 
Q 3303 1175 3120 767 
Q 2938 359 2589 142 
Q 2241 -75 1856 -75 
Q 1575 -75 1351 44 
Q 1128 163 984 344 
L 984 -1272 
L 422 -1272 
z
M 931 1641 
Q 931 1000 1190 694 
Q 1450 388 1819 388 
Q 2194 388 2461 705 
Q 2728 1022 2728 1688 
Q 2728 2322 2467 2637 
Q 2206 2953 1844 2953 
Q 1484 2953 1207 2617 
Q 931 2281 931 1641 
z
" transform="scale(0.015625)"/>
       <path id="ArialMT-69" d="M 425 3934 
L 425 4581 
L 988 4581 
L 988 3934 
L 425 3934 
z
M 425 0 
L 425 3319 
L 988 3319 
L 988 0 
L 425 0 
z
" transform="scale(0.015625)"/>
       <path id="ArialMT-73" d="M 197 991 
L 753 1078 
Q 800 744 1014 566 
Q 1228 388 1613 388 
Q 2000 388 2187 545 
Q 2375 703 2375 916 
Q 2375 1106 2209 1216 
Q 2094 1291 1634 1406 
Q 1016 1563 777 1677 
Q 538 1791 414 1992 
Q 291 2194 291 2438 
Q 291 2659 392 2848 
Q 494 3038 669 3163 
Q 800 3259 1026 3326 
Q 1253 3394 1513 3394 
Q 1903 3394 2198 3281 
Q 2494 3169 2634 2976 
Q 2775 2784 2828 2463 
L 2278 2388 
Q 2241 2644 2061 2787 
Q 1881 2931 1553 2931 
Q 1166 2931 1000 2803 
Q 834 2675 834 2503 
Q 834 2394 903 2306 
Q 972 2216 1119 2156 
Q 1203 2125 1616 2013 
Q 2213 1853 2448 1751 
Q 2684 1650 2818 1456 
Q 2953 1263 2953 975 
Q 2953 694 2789 445 
Q 2625 197 2315 61 
Q 2006 -75 1616 -75 
Q 969 -75 630 194 
Q 291 463 197 991 
z
" transform="scale(0.015625)"/>
       <path id="ArialMT-6f" d="M 213 1659 
Q 213 2581 725 3025 
Q 1153 3394 1769 3394 
Q 2453 3394 2887 2945 
Q 3322 2497 3322 1706 
Q 3322 1066 3130 698 
Q 2938 331 2570 128 
Q 2203 -75 1769 -75 
Q 1072 -75 642 372 
Q 213 819 213 1659 
z
M 791 1659 
Q 791 1022 1069 705 
Q 1347 388 1769 388 
Q 2188 388 2466 706 
Q 2744 1025 2744 1678 
Q 2744 2294 2464 2611 
Q 2184 2928 1769 2928 
Q 1347 2928 1069 2612 
Q 791 2297 791 1659 
z
" transform="scale(0.015625)"/>
       <path id="ArialMT-64" d="M 2575 0 
L 2575 419 
Q 2259 -75 1647 -75 
Q 1250 -75 917 144 
Q 584 363 401 755 
Q 219 1147 219 1656 
Q 219 2153 384 2558 
Q 550 2963 881 3178 
Q 1213 3394 1622 3394 
Q 1922 3394 2156 3267 
Q 2391 3141 2538 2938 
L 2538 4581 
L 3097 4581 
L 3097 0 
L 2575 0 
z
M 797 1656 
Q 797 1019 1065 703 
Q 1334 388 1700 388 
Q 2069 388 2326 689 
Q 2584 991 2584 1609 
Q 2584 2291 2321 2609 
Q 2059 2928 1675 2928 
Q 1300 2928 1048 2622 
Q 797 2316 797 1656 
z
" transform="scale(0.015625)"/>
       <path id="ArialMT-5f" d="M -97 -1272 
L -97 -866 
L 3631 -866 
L 3631 -1272 
L -97 -1272 
z
" transform="scale(0.015625)"/>
       <path id="ArialMT-6c" d="M 409 0 
L 409 4581 
L 972 4581 
L 972 0 
L 409 0 
z
" transform="scale(0.015625)"/>
       <path id="ArialMT-6e" d="M 422 0 
L 422 3319 
L 928 3319 
L 928 2847 
Q 1294 3394 1984 3394 
Q 2284 3394 2536 3286 
Q 2788 3178 2913 3003 
Q 3038 2828 3088 2588 
Q 3119 2431 3119 2041 
L 3119 0 
L 2556 0 
L 2556 2019 
Q 2556 2363 2490 2533 
Q 2425 2703 2258 2804 
Q 2091 2906 1866 2906 
Q 1506 2906 1245 2678 
Q 984 2450 984 1813 
L 984 0 
L 422 0 
z
" transform="scale(0.015625)"/>
       <path id="ArialMT-67" d="M 319 -275 
L 866 -356 
Q 900 -609 1056 -725 
Q 1266 -881 1628 -881 
Q 2019 -881 2231 -725 
Q 2444 -569 2519 -288 
Q 2563 -116 2559 434 
Q 2191 0 1641 0 
Q 956 0 581 494 
Q 206 988 206 1678 
Q 206 2153 378 2554 
Q 550 2956 876 3175 
Q 1203 3394 1644 3394 
Q 2231 3394 2613 2919 
L 2613 3319 
L 3131 3319 
L 3131 450 
Q 3131 -325 2973 -648 
Q 2816 -972 2473 -1159 
Q 2131 -1347 1631 -1347 
Q 1038 -1347 672 -1080 
Q 306 -813 319 -275 
z
M 784 1719 
Q 784 1066 1043 766 
Q 1303 466 1694 466 
Q 2081 466 2343 764 
Q 2606 1063 2606 1700 
Q 2606 2309 2336 2618 
Q 2066 2928 1684 2928 
Q 1309 2928 1046 2623 
Q 784 2319 784 1719 
z
" transform="scale(0.015625)"/>
       <path id="ArialMT-74" d="M 1650 503 
L 1731 6 
Q 1494 -44 1306 -44 
Q 1000 -44 831 53 
Q 663 150 594 308 
Q 525 466 525 972 
L 525 2881 
L 113 2881 
L 113 3319 
L 525 3319 
L 525 4141 
L 1084 4478 
L 1084 3319 
L 1650 3319 
L 1650 2881 
L 1084 2881 
L 1084 941 
Q 1084 700 1114 631 
Q 1144 563 1211 522 
Q 1278 481 1403 481 
Q 1497 481 1650 503 
z
" transform="scale(0.015625)"/>
       <path id="ArialMT-68" d="M 422 0 
L 422 4581 
L 984 4581 
L 984 2938 
Q 1378 3394 1978 3394 
Q 2347 3394 2619 3248 
Q 2891 3103 3008 2847 
Q 3125 2591 3125 2103 
L 3125 0 
L 2563 0 
L 2563 2103 
Q 2563 2525 2380 2717 
Q 2197 2909 1863 2909 
Q 1613 2909 1392 2779 
Q 1172 2650 1078 2428 
Q 984 2206 984 1816 
L 984 0 
L 422 0 
z
" transform="scale(0.015625)"/>
      </defs>
      <use xlink:href="#ArialMT-65"/>
      <use xlink:href="#ArialMT-70" x="55.615234"/>
      <use xlink:href="#ArialMT-69" x="111.230469"/>
      <use xlink:href="#ArialMT-73" x="133.447266"/>
      <use xlink:href="#ArialMT-6f" x="183.447266"/>
      <use xlink:href="#ArialMT-64" x="239.0625"/>
      <use xlink:href="#ArialMT-65" x="294.677734"/>
      <use xlink:href="#ArialMT-5f" x="350.292969"/>
      <use xlink:href="#ArialMT-6c" x="405.908203"/>
      <use xlink:href="#ArialMT-65" x="428.125"/>
      <use xlink:href="#ArialMT-6e" x="483.740234"/>
      <use xlink:href="#ArialMT-67" x="539.355469"/>
      <use xlink:href="#ArialMT-74" x="594.970703"/>
      <use xlink:href="#ArialMT-68" x="622.753906"/>
     </g>
    </g>
   </g>
   <g id="matplotlib.axis_2">
    <g id="ytick_1">
     <g id="line2d_8">
      <path d="M 57.6 273.746791 
L 414.72 273.746791 
" clip-path="url(#p7c439d1408)" style="fill: none; stroke: #ffffff; stroke-linecap: round"/>
     </g>
     <g id="text_9">
      <!-- 0.0 -->
      <g style="fill: #262626" transform="translate(32.81 277.683588) scale(0.11 -0.11)">
       <defs>
        <path id="ArialMT-2e" d="M 581 0 
L 581 641 
L 1222 641 
L 1222 0 
L 581 0 
z
" transform="scale(0.015625)"/>
       </defs>
       <use xlink:href="#ArialMT-30"/>
       <use xlink:href="#ArialMT-2e" x="55.615234"/>
       <use xlink:href="#ArialMT-30" x="83.398438"/>
      </g>
     </g>
    </g>
    <g id="ytick_2">
     <g id="line2d_9">
      <path d="M 57.6 223.443206 
L 414.72 223.443206 
" clip-path="url(#p7c439d1408)" style="fill: none; stroke: #ffffff; stroke-linecap: round"/>
     </g>
     <g id="text_10">
      <!-- 0.5 -->
      <g style="fill: #262626" transform="translate(32.81 227.380003) scale(0.11 -0.11)">
       <use xlink:href="#ArialMT-30"/>
       <use xlink:href="#ArialMT-2e" x="55.615234"/>
       <use xlink:href="#ArialMT-35" x="83.398438"/>
      </g>
     </g>
    </g>
    <g id="ytick_3">
     <g id="line2d_10">
      <path d="M 57.6 173.139621 
L 414.72 173.139621 
" clip-path="url(#p7c439d1408)" style="fill: none; stroke: #ffffff; stroke-linecap: round"/>
     </g>
     <g id="text_11">
      <!-- 1.0 -->
      <g style="fill: #262626" transform="translate(32.81 177.076418) scale(0.11 -0.11)">
       <use xlink:href="#ArialMT-31"/>
       <use xlink:href="#ArialMT-2e" x="55.615234"/>
       <use xlink:href="#ArialMT-30" x="83.398438"/>
      </g>
     </g>
    </g>
    <g id="ytick_4">
     <g id="line2d_11">
      <path d="M 57.6 122.836036 
L 414.72 122.836036 
" clip-path="url(#p7c439d1408)" style="fill: none; stroke: #ffffff; stroke-linecap: round"/>
     </g>
     <g id="text_12">
      <!-- 1.5 -->
      <g style="fill: #262626" transform="translate(32.81 126.772833) scale(0.11 -0.11)">
       <use xlink:href="#ArialMT-31"/>
       <use xlink:href="#ArialMT-2e" x="55.615234"/>
       <use xlink:href="#ArialMT-35" x="83.398438"/>
      </g>
     </g>
    </g>
    <g id="ytick_5">
     <g id="line2d_12">
      <path d="M 57.6 72.532451 
L 414.72 72.532451 
" clip-path="url(#p7c439d1408)" style="fill: none; stroke: #ffffff; stroke-linecap: round"/>
     </g>
     <g id="text_13">
      <!-- 2.0 -->
      <g style="fill: #262626" transform="translate(32.81 76.469248) scale(0.11 -0.11)">
       <use xlink:href="#ArialMT-32"/>
       <use xlink:href="#ArialMT-2e" x="55.615234"/>
       <use xlink:href="#ArialMT-30" x="83.398438"/>
      </g>
     </g>
    </g>
    <g id="text_14">
     <!-- total_reward -->
     <g style="fill: #262626" transform="translate(26.425 207.543) rotate(-90) scale(0.12 -0.12)">
      <defs>
       <path id="ArialMT-61" d="M 2588 409 
Q 2275 144 1986 34 
Q 1697 -75 1366 -75 
Q 819 -75 525 192 
Q 231 459 231 875 
Q 231 1119 342 1320 
Q 453 1522 633 1644 
Q 813 1766 1038 1828 
Q 1203 1872 1538 1913 
Q 2219 1994 2541 2106 
Q 2544 2222 2544 2253 
Q 2544 2597 2384 2738 
Q 2169 2928 1744 2928 
Q 1347 2928 1158 2789 
Q 969 2650 878 2297 
L 328 2372 
Q 403 2725 575 2942 
Q 747 3159 1072 3276 
Q 1397 3394 1825 3394 
Q 2250 3394 2515 3294 
Q 2781 3194 2906 3042 
Q 3031 2891 3081 2659 
Q 3109 2516 3109 2141 
L 3109 1391 
Q 3109 606 3145 398 
Q 3181 191 3288 0 
L 2700 0 
Q 2613 175 2588 409 
z
M 2541 1666 
Q 2234 1541 1622 1453 
Q 1275 1403 1131 1340 
Q 988 1278 909 1158 
Q 831 1038 831 891 
Q 831 666 1001 516 
Q 1172 366 1500 366 
Q 1825 366 2078 508 
Q 2331 650 2450 897 
Q 2541 1088 2541 1459 
L 2541 1666 
z
" transform="scale(0.015625)"/>
       <path id="ArialMT-72" d="M 416 0 
L 416 3319 
L 922 3319 
L 922 2816 
Q 1116 3169 1280 3281 
Q 1444 3394 1641 3394 
Q 1925 3394 2219 3213 
L 2025 2691 
Q 1819 2813 1613 2813 
Q 1428 2813 1281 2702 
Q 1134 2591 1072 2394 
Q 978 2094 978 1738 
L 978 0 
L 416 0 
z
" transform="scale(0.015625)"/>
       <path id="ArialMT-77" d="M 1034 0 
L 19 3319 
L 600 3319 
L 1128 1403 
L 1325 691 
Q 1338 744 1497 1375 
L 2025 3319 
L 2603 3319 
L 3100 1394 
L 3266 759 
L 3456 1400 
L 4025 3319 
L 4572 3319 
L 3534 0 
L 2950 0 
L 2422 1988 
L 2294 2553 
L 1622 0 
L 1034 0 
z
" transform="scale(0.015625)"/>
      </defs>
      <use xlink:href="#ArialMT-74"/>
      <use xlink:href="#ArialMT-6f" x="27.783203"/>
      <use xlink:href="#ArialMT-74" x="83.398438"/>
      <use xlink:href="#ArialMT-61" x="111.181641"/>
      <use xlink:href="#ArialMT-6c" x="166.796875"/>
      <use xlink:href="#ArialMT-5f" x="189.013672"/>
      <use xlink:href="#ArialMT-72" x="244.628906"/>
      <use xlink:href="#ArialMT-65" x="277.929688"/>
      <use xlink:href="#ArialMT-77" x="333.544922"/>
      <use xlink:href="#ArialMT-61" x="405.761719"/>
      <use xlink:href="#ArialMT-72" x="461.376953"/>
      <use xlink:href="#ArialMT-64" x="494.677734"/>
     </g>
    </g>
   </g>
   <g id="PathCollection_1">
    <defs>
     <path id="C0_0_bc84aa3063" d="M 0 3 
C 0.795609 3 1.55874 2.683901 2.12132 2.12132 
C 2.683901 1.55874 3 0.795609 3 -0 
C 3 -0.795609 2.683901 -1.55874 2.12132 -2.12132 
C 1.55874 -2.683901 0.795609 -3 0 -3 
C -0.795609 -3 -1.55874 -2.683901 -2.12132 -2.12132 
C -2.683901 -1.55874 -3 -0.795609 -3 0 
C -3 0.795609 -2.683901 1.55874 -2.12132 2.12132 
C -1.55874 2.683901 -0.795609 3 0 3 
z
"/>
    </defs>
    <g clip-path="url(#p7c439d1408)">
     <use xlink:href="#C0_0_bc84aa3063" x="191.720006" y="284.813579" style="fill: #eac7c3; stroke: #ffffff; stroke-width: 0.48"/>
    </g>
    <g clip-path="url(#p7c439d1408)">
     <use xlink:href="#C0_0_bc84aa3063" x="246.947409" y="154.03432" style="fill: #965886; stroke: #ffffff; stroke-width: 0.48"/>
    </g>
    <g clip-path="url(#p7c439d1408)">
     <use xlink:href="#C0_0_bc84aa3063" x="204.623605" y="241.904621" style="fill: #d8a0aa; stroke: #ffffff; stroke-width: 0.48"/>
    </g>
    <g clip-path="url(#p7c439d1408)">
     <use xlink:href="#C0_0_bc84aa3063" x="148.467143" y="182.566513" style="fill: #b06d92; stroke: #ffffff; stroke-width: 0.48"/>
    </g>
    <g clip-path="url(#p7c439d1408)">
     <use xlink:href="#C0_0_bc84aa3063" x="181.293898" y="250.265077" style="fill: #dca7ae; stroke: #ffffff; stroke-width: 0.48"/>
    </g>
    <g clip-path="url(#p7c439d1408)">
     <use xlink:href="#C0_0_bc84aa3063" x="309.504055" y="242.1662" style="fill: #d8a0aa; stroke: #ffffff; stroke-width: 0.48"/>
    </g>
    <g clip-path="url(#p7c439d1408)">
     <use xlink:href="#C0_0_bc84aa3063" x="137.215205" y="182.234509" style="fill: #b06d92; stroke: #ffffff; stroke-width: 0.48"/>
    </g>
    <g clip-path="url(#p7c439d1408)">
     <use xlink:href="#C0_0_bc84aa3063" x="73.935956" y="282.600222" style="fill: #e9c6c2; stroke: #ffffff; stroke-width: 0.48"/>
    </g>
    <g clip-path="url(#p7c439d1408)">
     <use xlink:href="#C0_0_bc84aa3063" x="87.768614" y="287.369001" style="fill: #ebcac5; stroke: #ffffff; stroke-width: 0.48"/>
    </g>
    <g clip-path="url(#p7c439d1408)">
     <use xlink:href="#C0_0_bc84aa3063" x="77.961879" y="285.226069" style="fill: #eac8c4; stroke: #ffffff; stroke-width: 0.48"/>
    </g>
    <g clip-path="url(#p7c439d1408)">
     <use xlink:href="#C0_0_bc84aa3063" x="106.659483" y="281.423118" style="fill: #e9c4c1; stroke: #ffffff; stroke-width: 0.48"/>
    </g>
    <g clip-path="url(#p7c439d1408)">
     <use xlink:href="#C0_0_bc84aa3063" x="101.188357" y="285.24619" style="fill: #eac8c4; stroke: #ffffff; stroke-width: 0.48"/>
    </g>
    <g clip-path="url(#p7c439d1408)">
     <use xlink:href="#C0_0_bc84aa3063" x="73.832727" y="291.453652" style="fill: #eccdc8; stroke: #ffffff; stroke-width: 0.48"/>
    </g>
    <g clip-path="url(#p7c439d1408)">
     <use xlink:href="#C0_0_bc84aa3063" x="152.389837" y="282.419129" style="fill: #e9c6c2; stroke: #ffffff; stroke-width: 0.48"/>
    </g>
    <g clip-path="url(#p7c439d1408)">
     <use xlink:href="#C0_0_bc84aa3063" x="341.195294" y="176.389233" style="fill: #ab6990; stroke: #ffffff; stroke-width: 0.48"/>
    </g>
    <g clip-path="url(#p7c439d1408)">
     <use xlink:href="#C0_0_bc84aa3063" x="119.253395" y="277.469256" style="fill: #e7c1be; stroke: #ffffff; stroke-width: 0.48"/>
    </g>
    <g clip-path="url(#p7c439d1408)">
     <use xlink:href="#C0_0_bc84aa3063" x="90.039647" y="281.060932" style="fill: #e9c4c1; stroke: #ffffff; stroke-width: 0.48"/>
    </g>
    <g clip-path="url(#p7c439d1408)">
     <use xlink:href="#C0_0_bc84aa3063" x="87.562156" y="283.052954" style="fill: #e9c6c2; stroke: #ffffff; stroke-width: 0.48"/>
    </g>
    <g clip-path="url(#p7c439d1408)">
     <use xlink:href="#C0_0_bc84aa3063" x="184.390762" y="156.861381" style="fill: #995a88; stroke: #ffffff; stroke-width: 0.48"/>
    </g>
    <g clip-path="url(#p7c439d1408)">
     <use xlink:href="#C0_0_bc84aa3063" x="360.808764" y="72.200448" style="fill: #3f284f; stroke: #ffffff; stroke-width: 0.48"/>
    </g>
    <g clip-path="url(#p7c439d1408)">
     <use xlink:href="#C0_0_bc84aa3063" x="73.935956" y="282.902043" style="fill: #e9c6c2; stroke: #ffffff; stroke-width: 0.48"/>
    </g>
    <g clip-path="url(#p7c439d1408)">
     <use xlink:href="#C0_0_bc84aa3063" x="77.136049" y="289.350963" style="fill: #ecccc7; stroke: #ffffff; stroke-width: 0.48"/>
    </g>
    <g clip-path="url(#p7c439d1408)">
     <use xlink:href="#C0_0_bc84aa3063" x="242.198884" y="196.399999" style="fill: #bc7897; stroke: #ffffff; stroke-width: 0.48"/>
    </g>
    <g clip-path="url(#p7c439d1408)">
     <use xlink:href="#C0_0_bc84aa3063" x="262.741413" y="143.540992" style="fill: #8d5282; stroke: #ffffff; stroke-width: 0.48"/>
    </g>
    <g clip-path="url(#p7c439d1408)">
     <use xlink:href="#C0_0_bc84aa3063" x="157.551276" y="184.810053" style="fill: #b26f93; stroke: #ffffff; stroke-width: 0.48"/>
    </g>
    <g clip-path="url(#p7c439d1408)">
     <use xlink:href="#C0_0_bc84aa3063" x="105.523966" y="277.097009" style="fill: #e7c1be; stroke: #ffffff; stroke-width: 0.48"/>
    </g>
    <g clip-path="url(#p7c439d1408)">
     <use xlink:href="#C0_0_bc84aa3063" x="304.445845" y="197.68777" style="fill: #bd7a98; stroke: #ffffff; stroke-width: 0.48"/>
    </g>
    <g clip-path="url(#p7c439d1408)">
     <use xlink:href="#C0_0_bc84aa3063" x="336.343541" y="71.868444" style="fill: #3f284f; stroke: #ffffff; stroke-width: 0.48"/>
    </g>
    <g clip-path="url(#p7c439d1408)">
     <use xlink:href="#C0_0_bc84aa3063" x="106.556254" y="279.612189" style="fill: #e8c3c0; stroke: #ffffff; stroke-width: 0.48"/>
    </g>
    <g clip-path="url(#p7c439d1408)">
     <use xlink:href="#C0_0_bc84aa3063" x="114.711328" y="281.463361" style="fill: #e9c4c1; stroke: #ffffff; stroke-width: 0.48"/>
    </g>
    <g clip-path="url(#p7c439d1408)">
     <use xlink:href="#C0_0_bc84aa3063" x="349.453597" y="74.625081" style="fill: #422952; stroke: #ffffff; stroke-width: 0.48"/>
    </g>
    <g clip-path="url(#p7c439d1408)">
     <use xlink:href="#C0_0_bc84aa3063" x="104.078763" y="255.255193" style="fill: #dfacb1; stroke: #ffffff; stroke-width: 0.48"/>
    </g>
    <g clip-path="url(#p7c439d1408)">
     <use xlink:href="#C0_0_bc84aa3063" x="76.929591" y="286.825723" style="fill: #ebcac5; stroke: #ffffff; stroke-width: 0.48"/>
    </g>
    <g clip-path="url(#p7c439d1408)">
     <use xlink:href="#C0_0_bc84aa3063" x="157.860963" y="277.932049" style="fill: #e7c1be; stroke: #ffffff; stroke-width: 0.48"/>
    </g>
    <g clip-path="url(#p7c439d1408)">
     <use xlink:href="#C0_0_bc84aa3063" x="89.420275" y="281.252086" style="fill: #e9c4c1; stroke: #ffffff; stroke-width: 0.48"/>
    </g>
    <g clip-path="url(#p7c439d1408)">
     <use xlink:href="#C0_0_bc84aa3063" x="76.516676" y="254.631428" style="fill: #deabb0; stroke: #ffffff; stroke-width: 0.48"/>
    </g>
    <g clip-path="url(#p7c439d1408)">
     <use xlink:href="#C0_0_bc84aa3063" x="382.073895" y="66.103653" style="fill: #39254a; stroke: #ffffff; stroke-width: 0.48"/>
    </g>
    <g clip-path="url(#p7c439d1408)">
     <use xlink:href="#C0_0_bc84aa3063" x="89.213817" y="287.087301" style="fill: #ebcac5; stroke: #ffffff; stroke-width: 0.48"/>
    </g>
    <g clip-path="url(#p7c439d1408)">
     <use xlink:href="#C0_0_bc84aa3063" x="108.001457" y="285.256251" style="fill: #eac8c4; stroke: #ffffff; stroke-width: 0.48"/>
    </g>
    <g clip-path="url(#p7c439d1408)">
     <use xlink:href="#C0_0_bc84aa3063" x="114.195184" y="277.720774" style="fill: #e7c1be; stroke: #ffffff; stroke-width: 0.48"/>
    </g>
    <g clip-path="url(#p7c439d1408)">
     <use xlink:href="#C0_0_bc84aa3063" x="104.078763" y="283.324593" style="fill: #eac7c3; stroke: #ffffff; stroke-width: 0.48"/>
    </g>
    <g clip-path="url(#p7c439d1408)">
     <use xlink:href="#C0_0_bc84aa3063" x="176.132458" y="278.50551" style="fill: #e8c2bf; stroke: #ffffff; stroke-width: 0.48"/>
    </g>
    <g clip-path="url(#p7c439d1408)">
     <use xlink:href="#C0_0_bc84aa3063" x="76.929591" y="287.429366" style="fill: #ebcac5; stroke: #ffffff; stroke-width: 0.48"/>
    </g>
    <g clip-path="url(#p7c439d1408)">
     <use xlink:href="#C0_0_bc84aa3063" x="114.814557" y="255.49665" style="fill: #dfacb1; stroke: #ffffff; stroke-width: 0.48"/>
    </g>
    <g clip-path="url(#p7c439d1408)">
     <use xlink:href="#C0_0_bc84aa3063" x="111.511236" y="289.501873" style="fill: #ecccc7; stroke: #ffffff; stroke-width: 0.48"/>
    </g>
    <g clip-path="url(#p7c439d1408)">
     <use xlink:href="#C0_0_bc84aa3063" x="102.427102" y="283.213925" style="fill: #eac7c3; stroke: #ffffff; stroke-width: 0.48"/>
    </g>
    <g clip-path="url(#p7c439d1408)">
     <use xlink:href="#C0_0_bc84aa3063" x="107.898228" y="281.322511" style="fill: #e9c4c1; stroke: #ffffff; stroke-width: 0.48"/>
    </g>
    <g clip-path="url(#p7c439d1408)">
     <use xlink:href="#C0_0_bc84aa3063" x="74.348871" y="287.137605" style="fill: #ebcac5; stroke: #ffffff; stroke-width: 0.48"/>
    </g>
    <g clip-path="url(#p7c439d1408)">
     <use xlink:href="#C0_0_bc84aa3063" x="78.478023" y="283.00265" style="fill: #e9c6c2; stroke: #ffffff; stroke-width: 0.48"/>
    </g>
    <g clip-path="url(#p7c439d1408)">
     <use xlink:href="#C0_0_bc84aa3063" x="117.292048" y="279.451217" style="fill: #e8c3c0; stroke: #ffffff; stroke-width: 0.48"/>
    </g>
    <g clip-path="url(#p7c439d1408)">
     <use xlink:href="#C0_0_bc84aa3063" x="212.056077" y="252.609224" style="fill: #dda9af; stroke: #ffffff; stroke-width: 0.48"/>
    </g>
    <g clip-path="url(#p7c439d1408)">
     <use xlink:href="#C0_0_bc84aa3063" x="239.721393" y="240.647032" style="fill: #d79ea9; stroke: #ffffff; stroke-width: 0.48"/>
    </g>
    <g clip-path="url(#p7c439d1408)">
     <use xlink:href="#C0_0_bc84aa3063" x="94.581714" y="278.958242" style="fill: #e8c2bf; stroke: #ffffff; stroke-width: 0.48"/>
    </g>
    <g clip-path="url(#p7c439d1408)">
     <use xlink:href="#C0_0_bc84aa3063" x="219.901466" y="155.432759" style="fill: #985987; stroke: #ffffff; stroke-width: 0.48"/>
    </g>
    <g clip-path="url(#p7c439d1408)">
     <use xlink:href="#C0_0_bc84aa3063" x="112.02738" y="281.443239" style="fill: #e9c4c1; stroke: #ffffff; stroke-width: 0.48"/>
    </g>
    <g clip-path="url(#p7c439d1408)">
     <use xlink:href="#C0_0_bc84aa3063" x="159.82231" y="182.828091" style="fill: #b06d92; stroke: #ffffff; stroke-width: 0.48"/>
    </g>
    <g clip-path="url(#p7c439d1408)">
     <use xlink:href="#C0_0_bc84aa3063" x="76.929591" y="286.533962" style="fill: #ebcac5; stroke: #ffffff; stroke-width: 0.48"/>
    </g>
    <g clip-path="url(#p7c439d1408)">
     <use xlink:href="#C0_0_bc84aa3063" x="86.839555" y="278.92806" style="fill: #e8c2bf; stroke: #ffffff; stroke-width: 0.48"/>
    </g>
    <g clip-path="url(#p7c439d1408)">
     <use xlink:href="#C0_0_bc84aa3063" x="236.727758" y="248.796213" style="fill: #dca6ae; stroke: #ffffff; stroke-width: 0.48"/>
    </g>
    <g clip-path="url(#p7c439d1408)">
     <use xlink:href="#C0_0_bc84aa3063" x="177.474433" y="247.619109" style="fill: #dba5ad; stroke: #ffffff; stroke-width: 0.48"/>
    </g>
    <g clip-path="url(#p7c439d1408)">
     <use xlink:href="#C0_0_bc84aa3063" x="74.039185" y="287.127544" style="fill: #ebcac5; stroke: #ffffff; stroke-width: 0.48"/>
    </g>
    <g clip-path="url(#p7c439d1408)">
     <use xlink:href="#C0_0_bc84aa3063" x="76.413447" y="289.350963" style="fill: #ecccc7; stroke: #ffffff; stroke-width: 0.48"/>
    </g>
    <g clip-path="url(#p7c439d1408)">
     <use xlink:href="#C0_0_bc84aa3063" x="221.553126" y="147.182971" style="fill: #905483; stroke: #ffffff; stroke-width: 0.48"/>
    </g>
    <g clip-path="url(#p7c439d1408)">
     <use xlink:href="#C0_0_bc84aa3063" x="108.724058" y="277.117131" style="fill: #e7c1be; stroke: #ffffff; stroke-width: 0.48"/>
    </g>
    <g clip-path="url(#p7c439d1408)">
     <use xlink:href="#C0_0_bc84aa3063" x="277.812817" y="151.94169" style="fill: #955786; stroke: #ffffff; stroke-width: 0.48"/>
    </g>
    <g clip-path="url(#p7c439d1408)">
     <use xlink:href="#C0_0_bc84aa3063" x="135.563544" y="277.328406" style="fill: #e7c1be; stroke: #ffffff; stroke-width: 0.48"/>
    </g>
    <g clip-path="url(#p7c439d1408)">
     <use xlink:href="#C0_0_bc84aa3063" x="166.325723" y="255.536893" style="fill: #dfacb1; stroke: #ffffff; stroke-width: 0.48"/>
    </g>
    <g clip-path="url(#p7c439d1408)">
     <use xlink:href="#C0_0_bc84aa3063" x="102.427102" y="281.402996" style="fill: #e9c4c1; stroke: #ffffff; stroke-width: 0.48"/>
    </g>
    <g clip-path="url(#p7c439d1408)">
     <use xlink:href="#C0_0_bc84aa3063" x="75.690845" y="280.688685" style="fill: #e9c4c1; stroke: #ffffff; stroke-width: 0.48"/>
    </g>
    <g clip-path="url(#p7c439d1408)">
     <use xlink:href="#C0_0_bc84aa3063" x="73.935956" y="285.316615" style="fill: #eac8c4; stroke: #ffffff; stroke-width: 0.48"/>
    </g>
    <g clip-path="url(#p7c439d1408)">
     <use xlink:href="#C0_0_bc84aa3063" x="81.884573" y="282.72095" style="fill: #e9c6c2; stroke: #ffffff; stroke-width: 0.48"/>
    </g>
    <g clip-path="url(#p7c439d1408)">
     <use xlink:href="#C0_0_bc84aa3063" x="195.849157" y="252.226917" style="fill: #dda9af; stroke: #ffffff; stroke-width: 0.48"/>
    </g>
    <g clip-path="url(#p7c439d1408)">
     <use xlink:href="#C0_0_bc84aa3063" x="140.312068" y="277.94211" style="fill: #e7c1be; stroke: #ffffff; stroke-width: 0.48"/>
    </g>
    <g clip-path="url(#p7c439d1408)">
     <use xlink:href="#C0_0_bc84aa3063" x="88.387987" y="285.055037" style="fill: #eac7c3; stroke: #ffffff; stroke-width: 0.48"/>
    </g>
    <g clip-path="url(#p7c439d1408)">
     <use xlink:href="#C0_0_bc84aa3063" x="169.629045" y="282.217914" style="fill: #e9c4c1; stroke: #ffffff; stroke-width: 0.48"/>
    </g>
    <g clip-path="url(#p7c439d1408)">
     <use xlink:href="#C0_0_bc84aa3063" x="183.977847" y="253.685721" style="fill: #ddaab0; stroke: #ffffff; stroke-width: 0.48"/>
    </g>
    <g clip-path="url(#p7c439d1408)">
     <use xlink:href="#C0_0_bc84aa3063" x="311.362174" y="75.832367" style="fill: #432a53; stroke: #ffffff; stroke-width: 0.48"/>
    </g>
    <g clip-path="url(#p7c439d1408)">
     <use xlink:href="#C0_0_bc84aa3063" x="398.487273" y="53.568" style="fill: #2d1e3e; stroke: #ffffff; stroke-width: 0.48"/>
    </g>
    <g clip-path="url(#p7c439d1408)">
     <use xlink:href="#C0_0_bc84aa3063" x="164.467605" y="184.850296" style="fill: #b26f93; stroke: #ffffff; stroke-width: 0.48"/>
    </g>
    <g clip-path="url(#p7c439d1408)">
     <use xlink:href="#C0_0_bc84aa3063" x="150.325261" y="180.051334" style="fill: #ae6b91; stroke: #ffffff; stroke-width: 0.48"/>
    </g>
    <g clip-path="url(#p7c439d1408)">
     <use xlink:href="#C0_0_bc84aa3063" x="73.935956" y="286.523901" style="fill: #ebcac5; stroke: #ffffff; stroke-width: 0.48"/>
    </g>
    <g clip-path="url(#p7c439d1408)">
     <use xlink:href="#C0_0_bc84aa3063" x="73.935956" y="289.240295" style="fill: #ecccc7; stroke: #ffffff; stroke-width: 0.48"/>
    </g>
    <g clip-path="url(#p7c439d1408)">
     <use xlink:href="#C0_0_bc84aa3063" x="209.165671" y="250.285199" style="fill: #dca7ae; stroke: #ffffff; stroke-width: 0.48"/>
    </g>
    <g clip-path="url(#p7c439d1408)">
     <use xlink:href="#C0_0_bc84aa3063" x="127.718156" y="254.852764" style="fill: #deabb0; stroke: #ffffff; stroke-width: 0.48"/>
    </g>
    <g clip-path="url(#p7c439d1408)">
     <use xlink:href="#C0_0_bc84aa3063" x="397.04207" y="63.789688" style="fill: #362347; stroke: #ffffff; stroke-width: 0.48"/>
    </g>
    <g clip-path="url(#p7c439d1408)">
     <use xlink:href="#C0_0_bc84aa3063" x="189.965116" y="243.534458" style="fill: #d9a1ab; stroke: #ffffff; stroke-width: 0.48"/>
    </g>
    <g clip-path="url(#p7c439d1408)">
     <use xlink:href="#C0_0_bc84aa3063" x="107.175627" y="279.219821" style="fill: #e8c2bf; stroke: #ffffff; stroke-width: 0.48"/>
    </g>
    <g clip-path="url(#p7c439d1408)">
     <use xlink:href="#C0_0_bc84aa3063" x="140.312068" y="279.753039" style="fill: #e8c3c0; stroke: #ffffff; stroke-width: 0.48"/>
    </g>
    <g clip-path="url(#p7c439d1408)">
     <use xlink:href="#C0_0_bc84aa3063" x="159.615852" y="255.808532" style="fill: #dfacb1; stroke: #ffffff; stroke-width: 0.48"/>
    </g>
    <g clip-path="url(#p7c439d1408)">
     <use xlink:href="#C0_0_bc84aa3063" x="322.407654" y="82.261165" style="fill: #4b2e59; stroke: #ffffff; stroke-width: 0.48"/>
    </g>
    <g clip-path="url(#p7c439d1408)">
     <use xlink:href="#C0_0_bc84aa3063" x="123.07286" y="283.515747" style="fill: #eac7c3; stroke: #ffffff; stroke-width: 0.48"/>
    </g>
    <g clip-path="url(#p7c439d1408)">
     <use xlink:href="#C0_0_bc84aa3063" x="118.01465" y="277.137252" style="fill: #e7c1be; stroke: #ffffff; stroke-width: 0.48"/>
    </g>
    <g clip-path="url(#p7c439d1408)">
     <use xlink:href="#C0_0_bc84aa3063" x="248.49584" y="249.057791" style="fill: #dca6ae; stroke: #ffffff; stroke-width: 0.48"/>
    </g>
    <g clip-path="url(#p7c439d1408)">
     <use xlink:href="#C0_0_bc84aa3063" x="76.929591" y="278.78721" style="fill: #e8c2bf; stroke: #ffffff; stroke-width: 0.48"/>
    </g>
    <g clip-path="url(#p7c439d1408)">
     <use xlink:href="#C0_0_bc84aa3063" x="94.478485" y="278.948181" style="fill: #e8c2bf; stroke: #ffffff; stroke-width: 0.48"/>
    </g>
    <g clip-path="url(#p7c439d1408)">
     <use xlink:href="#C0_0_bc84aa3063" x="111.408007" y="277.006463" style="fill: #e7c1be; stroke: #ffffff; stroke-width: 0.48"/>
    </g>
    <g clip-path="url(#p7c439d1408)">
     <use xlink:href="#C0_0_bc84aa3063" x="131.331163" y="288.264405" style="fill: #ebcbc6; stroke: #ffffff; stroke-width: 0.48"/>
    </g>
    <g clip-path="url(#p7c439d1408)">
     <use xlink:href="#C0_0_bc84aa3063" x="77.136049" y="280.688685" style="fill: #e9c4c1; stroke: #ffffff; stroke-width: 0.48"/>
    </g>
    <g clip-path="url(#p7c439d1408)">
     <use xlink:href="#C0_0_bc84aa3063" x="86.220182" y="284.753215" style="fill: #eac7c3; stroke: #ffffff; stroke-width: 0.48"/>
    </g>
    <g clip-path="url(#p7c439d1408)">
     <use xlink:href="#C0_0_bc84aa3063" x="144.234762" y="283.395018" style="fill: #eac7c3; stroke: #ffffff; stroke-width: 0.48"/>
    </g>
    <g clip-path="url(#p7c439d1408)">
     <use xlink:href="#C0_0_bc84aa3063" x="172.725908" y="178.330951" style="fill: #ae6b91; stroke: #ffffff; stroke-width: 0.48"/>
    </g>
    <g clip-path="url(#p7c439d1408)">
     <use xlink:href="#C0_0_bc84aa3063" x="85.084665" y="286.966573" style="fill: #ebcac5; stroke: #ffffff; stroke-width: 0.48"/>
    </g>
    <g clip-path="url(#p7c439d1408)">
     <use xlink:href="#C0_0_bc84aa3063" x="116.672675" y="281.1716" style="fill: #e9c4c1; stroke: #ffffff; stroke-width: 0.48"/>
    </g>
    <g clip-path="url(#p7c439d1408)">
     <use xlink:href="#C0_0_bc84aa3063" x="175.719543" y="184.799992" style="fill: #b26f93; stroke: #ffffff; stroke-width: 0.48"/>
    </g>
    <g clip-path="url(#p7c439d1408)">
     <use xlink:href="#C0_0_bc84aa3063" x="93.23974" y="283.083136" style="fill: #e9c6c2; stroke: #ffffff; stroke-width: 0.48"/>
    </g>
    <g clip-path="url(#p7c439d1408)">
     <use xlink:href="#C0_0_bc84aa3063" x="195.745929" y="246.08988" style="fill: #daa4ac; stroke: #ffffff; stroke-width: 0.48"/>
    </g>
    <g clip-path="url(#p7c439d1408)">
     <use xlink:href="#C0_0_bc84aa3063" x="110.685405" y="281.141418" style="fill: #e9c4c1; stroke: #ffffff; stroke-width: 0.48"/>
    </g>
    <g clip-path="url(#p7c439d1408)">
     <use xlink:href="#C0_0_bc84aa3063" x="87.046012" y="287.177848" style="fill: #ebcac5; stroke: #ffffff; stroke-width: 0.48"/>
    </g>
    <g clip-path="url(#p7c439d1408)">
     <use xlink:href="#C0_0_bc84aa3063" x="159.925538" y="277.630227" style="fill: #e7c1be; stroke: #ffffff; stroke-width: 0.48"/>
    </g>
    <g clip-path="url(#p7c439d1408)">
     <use xlink:href="#C0_0_bc84aa3063" x="96.64629" y="287.419305" style="fill: #ebcac5; stroke: #ffffff; stroke-width: 0.48"/>
    </g>
    <g clip-path="url(#p7c439d1408)">
     <use xlink:href="#C0_0_bc84aa3063" x="311.155716" y="81.506611" style="fill: #492d58; stroke: #ffffff; stroke-width: 0.48"/>
    </g>
    <g clip-path="url(#p7c439d1408)">
     <use xlink:href="#C0_0_bc84aa3063" x="83.433005" y="290.789645" style="fill: #eccdc8; stroke: #ffffff; stroke-width: 0.48"/>
    </g>
    <g clip-path="url(#p7c439d1408)">
     <use xlink:href="#C0_0_bc84aa3063" x="97.781807" y="280.990507" style="fill: #e9c4c1; stroke: #ffffff; stroke-width: 0.48"/>
    </g>
    <g clip-path="url(#p7c439d1408)">
     <use xlink:href="#C0_0_bc84aa3063" x="184.597219" y="282.660586" style="fill: #e9c6c2; stroke: #ffffff; stroke-width: 0.48"/>
    </g>
    <g clip-path="url(#p7c439d1408)">
     <use xlink:href="#C0_0_bc84aa3063" x="87.149241" y="286.775419" style="fill: #ebcac5; stroke: #ffffff; stroke-width: 0.48"/>
    </g>
    <g clip-path="url(#p7c439d1408)">
     <use xlink:href="#C0_0_bc84aa3063" x="299.903778" y="79.625257" style="fill: #482c57; stroke: #ffffff; stroke-width: 0.48"/>
    </g>
    <g clip-path="url(#p7c439d1408)">
     <use xlink:href="#C0_0_bc84aa3063" x="88.697673" y="288.978716" style="fill: #ecccc7; stroke: #ffffff; stroke-width: 0.48"/>
    </g>
    <g clip-path="url(#p7c439d1408)">
     <use xlink:href="#C0_0_bc84aa3063" x="74.142414" y="289.049141" style="fill: #ecccc7; stroke: #ffffff; stroke-width: 0.48"/>
    </g>
    <g clip-path="url(#p7c439d1408)">
     <use xlink:href="#C0_0_bc84aa3063" x="190.790947" y="278.274113" style="fill: #e7c1be; stroke: #ffffff; stroke-width: 0.48"/>
    </g>
    <g clip-path="url(#p7c439d1408)">
     <use xlink:href="#C0_0_bc84aa3063" x="97.265663" y="276.96622" style="fill: #e7c1be; stroke: #ffffff; stroke-width: 0.48"/>
    </g>
    <g clip-path="url(#p7c439d1408)">
     <use xlink:href="#C0_0_bc84aa3063" x="77.342506" y="284.712972" style="fill: #eac7c3; stroke: #ffffff; stroke-width: 0.48"/>
    </g>
    <g clip-path="url(#p7c439d1408)">
     <use xlink:href="#C0_0_bc84aa3063" x="211.436705" y="242.02535" style="fill: #d8a0aa; stroke: #ffffff; stroke-width: 0.48"/>
    </g>
    <g clip-path="url(#p7c439d1408)">
     <use xlink:href="#C0_0_bc84aa3063" x="310.329886" y="82.019708" style="fill: #4b2e59; stroke: #ffffff; stroke-width: 0.48"/>
    </g>
    <g clip-path="url(#p7c439d1408)">
     <use xlink:href="#C0_0_bc84aa3063" x="79.200624" y="295.488" style="fill: #edd1cb; stroke: #ffffff; stroke-width: 0.48"/>
    </g>
    <g clip-path="url(#p7c439d1408)">
     <use xlink:href="#C0_0_bc84aa3063" x="76.619905" y="290.86007" style="fill: #eccdc8; stroke: #ffffff; stroke-width: 0.48"/>
    </g>
    <g clip-path="url(#p7c439d1408)">
     <use xlink:href="#C0_0_bc84aa3063" x="115.846845" y="280.648442" style="fill: #e9c4c1; stroke: #ffffff; stroke-width: 0.48"/>
    </g>
    <g clip-path="url(#p7c439d1408)">
     <use xlink:href="#C0_0_bc84aa3063" x="92.207452" y="287.087301" style="fill: #ebcac5; stroke: #ffffff; stroke-width: 0.48"/>
    </g>
    <g clip-path="url(#p7c439d1408)">
     <use xlink:href="#C0_0_bc84aa3063" x="125.447122" y="282.801436" style="fill: #e9c6c2; stroke: #ffffff; stroke-width: 0.48"/>
    </g>
    <g clip-path="url(#p7c439d1408)">
     <use xlink:href="#C0_0_bc84aa3063" x="266.870565" y="240.868368" style="fill: #d89faa; stroke: #ffffff; stroke-width: 0.48"/>
    </g>
    <g clip-path="url(#p7c439d1408)">
     <use xlink:href="#C0_0_bc84aa3063" x="208.649527" y="247.971234" style="fill: #dba5ad; stroke: #ffffff; stroke-width: 0.48"/>
    </g>
    <g clip-path="url(#p7c439d1408)">
     <use xlink:href="#C0_0_bc84aa3063" x="151.564006" y="183.119852" style="fill: #b16e92; stroke: #ffffff; stroke-width: 0.48"/>
    </g>
    <g clip-path="url(#p7c439d1408)">
     <use xlink:href="#C0_0_bc84aa3063" x="179.745466" y="282.358764" style="fill: #e9c6c2; stroke: #ffffff; stroke-width: 0.48"/>
    </g>
    <g clip-path="url(#p7c439d1408)">
     <use xlink:href="#C0_0_bc84aa3063" x="153.215667" y="186.429828" style="fill: #b37093; stroke: #ffffff; stroke-width: 0.48"/>
    </g>
    <g clip-path="url(#p7c439d1408)">
     <use xlink:href="#C0_0_bc84aa3063" x="116.25976" y="255.204889" style="fill: #dfacb1; stroke: #ffffff; stroke-width: 0.48"/>
    </g>
    <g clip-path="url(#p7c439d1408)">
     <use xlink:href="#C0_0_bc84aa3063" x="97.265663" y="289.330841" style="fill: #ecccc7; stroke: #ffffff; stroke-width: 0.48"/>
    </g>
    <g clip-path="url(#p7c439d1408)">
     <use xlink:href="#C0_0_bc84aa3063" x="73.935956" y="290.749402" style="fill: #eccdc8; stroke: #ffffff; stroke-width: 0.48"/>
    </g>
    <g clip-path="url(#p7c439d1408)">
     <use xlink:href="#C0_0_bc84aa3063" x="163.745004" y="279.853646" style="fill: #e8c3c0; stroke: #ffffff; stroke-width: 0.48"/>
    </g>
    <g clip-path="url(#p7c439d1408)">
     <use xlink:href="#C0_0_bc84aa3063" x="95.304316" y="287.097362" style="fill: #ebcac5; stroke: #ffffff; stroke-width: 0.48"/>
    </g>
    <g clip-path="url(#p7c439d1408)">
     <use xlink:href="#C0_0_bc84aa3063" x="73.935956" y="284.411151" style="fill: #eac7c3; stroke: #ffffff; stroke-width: 0.48"/>
    </g>
    <g clip-path="url(#p7c439d1408)">
     <use xlink:href="#C0_0_bc84aa3063" x="230.017887" y="256.2009" style="fill: #dfacb1; stroke: #ffffff; stroke-width: 0.48"/>
    </g>
   </g>
   <g id="patch_3">
    <path d="M 57.6 307.584 
L 57.6 41.472 
" style="fill: none; stroke: #ffffff; stroke-width: 1.25; stroke-linejoin: miter; stroke-linecap: square"/>
   </g>
   <g id="patch_4">
    <path d="M 414.72 307.584 
L 414.72 41.472 
" style="fill: none; stroke: #ffffff; stroke-width: 1.25; stroke-linejoin: miter; stroke-linecap: square"/>
   </g>
   <g id="patch_5">
    <path d="M 57.6 307.584 
L 414.72 307.584 
" style="fill: none; stroke: #ffffff; stroke-width: 1.25; stroke-linejoin: miter; stroke-linecap: square"/>
   </g>
   <g id="patch_6">
    <path d="M 57.6 41.472 
L 414.72 41.472 
" style="fill: none; stroke: #ffffff; stroke-width: 1.25; stroke-linejoin: miter; stroke-linecap: square"/>
   </g>
  </g>
 </g>
 <defs>
  <clipPath id="p7c439d1408">
   <rect x="57.6" y="41.472" width="357.12" height="266.112"/>
  </clipPath>
 </defs>
</svg>
