<?xml version="1.0" encoding="utf-8" standalone="no"?>
<!DOCTYPE svg PUBLIC "-//W3C//DTD SVG 1.1//EN"
  "http://www.w3.org/Graphics/SVG/1.1/DTD/svg11.dtd">
<svg xmlns:xlink="http://www.w3.org/1999/xlink" width="460.8pt" height="345.6pt" viewBox="0 0 460.8 345.6" xmlns="http://www.w3.org/2000/svg" version="1.1">
 <metadata>
  <rdf:RDF xmlns:dc="http://purl.org/dc/elements/1.1/" xmlns:cc="http://creativecommons.org/ns#" xmlns:rdf="http://www.w3.org/1999/02/22-rdf-syntax-ns#">
   <cc:Work>
    <dc:type rdf:resource="http://purl.org/dc/dcmitype/StillImage"/>
    <dc:date>2024-10-28T17:12:21.552855</dc:date>
    <dc:format>image/svg+xml</dc:format>
    <dc:creator>
     <cc:Agent>
      <dc:title>Matplotlib v3.9.2, https://matplotlib.org/</dc:title>
     </cc:Agent>
    </dc:creator>
   </cc:Work>
  </rdf:RDF>
 </metadata>
 <defs>
  <style type="text/css">*{stroke-linejoin: round; stroke-linecap: butt}</style>
 </defs>
 <g id="figure_1">
  <g id="patch_1">
   <path d="M 0 345.6 
L 460.8 345.6 
L 460.8 0 
L 0 0 
z
" style="fill: #ffffff"/>
  </g>
  <g id="axes_1">
   <g id="patch_2">
    <path d="M 57.6 307.584 
L 414.72 307.584 
L 414.72 41.472 
L 57.6 41.472 
z
" style="fill: #eaeaf2"/>
   </g>
   <g id="matplotlib.axis_1">
    <g id="xtick_1">
     <g id="line2d_1">
      <path d="M 73.746749 307.584 
L 73.746749 41.472 
" clip-path="url(#pee77bcab23)" style="fill: none; stroke: #ffffff; stroke-linecap: round"/>
     </g>
     <g id="text_1">
      <!-- 0 -->
      <g style="fill: #262626" transform="translate(70.688233 324.957594) scale(0.11 -0.11)">
       <defs>
        <path id="ArialMT-30" d="M 266 2259 
Q 266 3072 433 3567 
Q 600 4063 929 4331 
Q 1259 4600 1759 4600 
Q 2128 4600 2406 4451 
Q 2684 4303 2865 4023 
Q 3047 3744 3150 3342 
Q 3253 2941 3253 2259 
Q 3253 1453 3087 958 
Q 2922 463 2592 192 
Q 2263 -78 1759 -78 
Q 1097 -78 719 397 
Q 266 969 266 2259 
z
M 844 2259 
Q 844 1131 1108 757 
Q 1372 384 1759 384 
Q 2147 384 2411 759 
Q 2675 1134 2675 2259 
Q 2675 3391 2411 3762 
Q 2147 4134 1753 4134 
Q 1366 4134 1134 3806 
Q 844 3388 844 2259 
z
" transform="scale(0.015625)"/>
       </defs>
       <use xlink:href="#ArialMT-30"/>
      </g>
     </g>
    </g>
    <g id="xtick_2">
     <g id="line2d_2">
      <path d="M 116.735963 307.584 
L 116.735963 41.472 
" clip-path="url(#pee77bcab23)" style="fill: none; stroke: #ffffff; stroke-linecap: round"/>
     </g>
     <g id="text_2">
      <!-- 500 -->
      <g style="fill: #262626" transform="translate(107.560416 324.957594) scale(0.11 -0.11)">
       <defs>
        <path id="ArialMT-35" d="M 266 1200 
L 856 1250 
Q 922 819 1161 601 
Q 1400 384 1738 384 
Q 2144 384 2425 690 
Q 2706 997 2706 1503 
Q 2706 1984 2436 2262 
Q 2166 2541 1728 2541 
Q 1456 2541 1237 2417 
Q 1019 2294 894 2097 
L 366 2166 
L 809 4519 
L 3088 4519 
L 3088 3981 
L 1259 3981 
L 1013 2750 
Q 1425 3038 1878 3038 
Q 2478 3038 2890 2622 
Q 3303 2206 3303 1553 
Q 3303 931 2941 478 
Q 2500 -78 1738 -78 
Q 1113 -78 717 272 
Q 322 622 266 1200 
z
" transform="scale(0.015625)"/>
       </defs>
       <use xlink:href="#ArialMT-35"/>
       <use xlink:href="#ArialMT-30" x="55.615234"/>
       <use xlink:href="#ArialMT-30" x="111.230469"/>
      </g>
     </g>
    </g>
    <g id="xtick_3">
     <g id="line2d_3">
      <path d="M 159.725177 307.584 
L 159.725177 41.472 
" clip-path="url(#pee77bcab23)" style="fill: none; stroke: #ffffff; stroke-linecap: round"/>
     </g>
     <g id="text_3">
      <!-- 1000 -->
      <g style="fill: #262626" transform="translate(147.491115 324.957594) scale(0.11 -0.11)">
       <defs>
        <path id="ArialMT-31" d="M 2384 0 
L 1822 0 
L 1822 3584 
Q 1619 3391 1289 3197 
Q 959 3003 697 2906 
L 697 3450 
Q 1169 3672 1522 3987 
Q 1875 4303 2022 4600 
L 2384 4600 
L 2384 0 
z
" transform="scale(0.015625)"/>
       </defs>
       <use xlink:href="#ArialMT-31"/>
       <use xlink:href="#ArialMT-30" x="55.615234"/>
       <use xlink:href="#ArialMT-30" x="111.230469"/>
       <use xlink:href="#ArialMT-30" x="166.845703"/>
      </g>
     </g>
    </g>
    <g id="xtick_4">
     <g id="line2d_4">
      <path d="M 202.714391 307.584 
L 202.714391 41.472 
" clip-path="url(#pee77bcab23)" style="fill: none; stroke: #ffffff; stroke-linecap: round"/>
     </g>
     <g id="text_4">
      <!-- 1500 -->
      <g style="fill: #262626" transform="translate(190.480329 324.957594) scale(0.11 -0.11)">
       <use xlink:href="#ArialMT-31"/>
       <use xlink:href="#ArialMT-35" x="55.615234"/>
       <use xlink:href="#ArialMT-30" x="111.230469"/>
       <use xlink:href="#ArialMT-30" x="166.845703"/>
      </g>
     </g>
    </g>
    <g id="xtick_5">
     <g id="line2d_5">
      <path d="M 245.703606 307.584 
L 245.703606 41.472 
" clip-path="url(#pee77bcab23)" style="fill: none; stroke: #ffffff; stroke-linecap: round"/>
     </g>
     <g id="text_5">
      <!-- 2000 -->
      <g style="fill: #262626" transform="translate(233.469543 324.957594) scale(0.11 -0.11)">
       <defs>
        <path id="ArialMT-32" d="M 3222 541 
L 3222 0 
L 194 0 
Q 188 203 259 391 
Q 375 700 629 1000 
Q 884 1300 1366 1694 
Q 2113 2306 2375 2664 
Q 2638 3022 2638 3341 
Q 2638 3675 2398 3904 
Q 2159 4134 1775 4134 
Q 1369 4134 1125 3890 
Q 881 3647 878 3216 
L 300 3275 
Q 359 3922 746 4261 
Q 1134 4600 1788 4600 
Q 2447 4600 2831 4234 
Q 3216 3869 3216 3328 
Q 3216 3053 3103 2787 
Q 2991 2522 2730 2228 
Q 2469 1934 1863 1422 
Q 1356 997 1212 845 
Q 1069 694 975 541 
L 3222 541 
z
" transform="scale(0.015625)"/>
       </defs>
       <use xlink:href="#ArialMT-32"/>
       <use xlink:href="#ArialMT-30" x="55.615234"/>
       <use xlink:href="#ArialMT-30" x="111.230469"/>
       <use xlink:href="#ArialMT-30" x="166.845703"/>
      </g>
     </g>
    </g>
    <g id="xtick_6">
     <g id="line2d_6">
      <path d="M 288.69282 307.584 
L 288.69282 41.472 
" clip-path="url(#pee77bcab23)" style="fill: none; stroke: #ffffff; stroke-linecap: round"/>
     </g>
     <g id="text_6">
      <!-- 2500 -->
      <g style="fill: #262626" transform="translate(276.458757 324.957594) scale(0.11 -0.11)">
       <use xlink:href="#ArialMT-32"/>
       <use xlink:href="#ArialMT-35" x="55.615234"/>
       <use xlink:href="#ArialMT-30" x="111.230469"/>
       <use xlink:href="#ArialMT-30" x="166.845703"/>
      </g>
     </g>
    </g>
    <g id="xtick_7">
     <g id="line2d_7">
      <path d="M 331.682034 307.584 
L 331.682034 41.472 
" clip-path="url(#pee77bcab23)" style="fill: none; stroke: #ffffff; stroke-linecap: round"/>
     </g>
     <g id="text_7">
      <!-- 3000 -->
      <g style="fill: #262626" transform="translate(319.447971 324.957594) scale(0.11 -0.11)">
       <defs>
        <path id="ArialMT-33" d="M 269 1209 
L 831 1284 
Q 928 806 1161 595 
Q 1394 384 1728 384 
Q 2125 384 2398 659 
Q 2672 934 2672 1341 
Q 2672 1728 2419 1979 
Q 2166 2231 1775 2231 
Q 1616 2231 1378 2169 
L 1441 2663 
Q 1497 2656 1531 2656 
Q 1891 2656 2178 2843 
Q 2466 3031 2466 3422 
Q 2466 3731 2256 3934 
Q 2047 4138 1716 4138 
Q 1388 4138 1169 3931 
Q 950 3725 888 3313 
L 325 3413 
Q 428 3978 793 4289 
Q 1159 4600 1703 4600 
Q 2078 4600 2393 4439 
Q 2709 4278 2876 4000 
Q 3044 3722 3044 3409 
Q 3044 3113 2884 2869 
Q 2725 2625 2413 2481 
Q 2819 2388 3044 2092 
Q 3269 1797 3269 1353 
Q 3269 753 2831 336 
Q 2394 -81 1725 -81 
Q 1122 -81 723 278 
Q 325 638 269 1209 
z
" transform="scale(0.015625)"/>
       </defs>
       <use xlink:href="#ArialMT-33"/>
       <use xlink:href="#ArialMT-30" x="55.615234"/>
       <use xlink:href="#ArialMT-30" x="111.230469"/>
       <use xlink:href="#ArialMT-30" x="166.845703"/>
      </g>
     </g>
    </g>
    <g id="xtick_8">
     <g id="line2d_8">
      <path d="M 374.671248 307.584 
L 374.671248 41.472 
" clip-path="url(#pee77bcab23)" style="fill: none; stroke: #ffffff; stroke-linecap: round"/>
     </g>
     <g id="text_8">
      <!-- 3500 -->
      <g style="fill: #262626" transform="translate(362.437186 324.957594) scale(0.11 -0.11)">
       <use xlink:href="#ArialMT-33"/>
       <use xlink:href="#ArialMT-35" x="55.615234"/>
       <use xlink:href="#ArialMT-30" x="111.230469"/>
       <use xlink:href="#ArialMT-30" x="166.845703"/>
      </g>
     </g>
    </g>
    <g id="text_9">
     <!-- frame_number -->
     <g style="fill: #262626" transform="translate(197.145938 339.879469) scale(0.12 -0.12)">
      <defs>
       <path id="ArialMT-66" d="M 556 0 
L 556 2881 
L 59 2881 
L 59 3319 
L 556 3319 
L 556 3672 
Q 556 4006 616 4169 
Q 697 4388 901 4523 
Q 1106 4659 1475 4659 
Q 1713 4659 2000 4603 
L 1916 4113 
Q 1741 4144 1584 4144 
Q 1328 4144 1222 4034 
Q 1116 3925 1116 3625 
L 1116 3319 
L 1763 3319 
L 1763 2881 
L 1116 2881 
L 1116 0 
L 556 0 
z
" transform="scale(0.015625)"/>
       <path id="ArialMT-72" d="M 416 0 
L 416 3319 
L 922 3319 
L 922 2816 
Q 1116 3169 1280 3281 
Q 1444 3394 1641 3394 
Q 1925 3394 2219 3213 
L 2025 2691 
Q 1819 2813 1613 2813 
Q 1428 2813 1281 2702 
Q 1134 2591 1072 2394 
Q 978 2094 978 1738 
L 978 0 
L 416 0 
z
" transform="scale(0.015625)"/>
       <path id="ArialMT-61" d="M 2588 409 
Q 2275 144 1986 34 
Q 1697 -75 1366 -75 
Q 819 -75 525 192 
Q 231 459 231 875 
Q 231 1119 342 1320 
Q 453 1522 633 1644 
Q 813 1766 1038 1828 
Q 1203 1872 1538 1913 
Q 2219 1994 2541 2106 
Q 2544 2222 2544 2253 
Q 2544 2597 2384 2738 
Q 2169 2928 1744 2928 
Q 1347 2928 1158 2789 
Q 969 2650 878 2297 
L 328 2372 
Q 403 2725 575 2942 
Q 747 3159 1072 3276 
Q 1397 3394 1825 3394 
Q 2250 3394 2515 3294 
Q 2781 3194 2906 3042 
Q 3031 2891 3081 2659 
Q 3109 2516 3109 2141 
L 3109 1391 
Q 3109 606 3145 398 
Q 3181 191 3288 0 
L 2700 0 
Q 2613 175 2588 409 
z
M 2541 1666 
Q 2234 1541 1622 1453 
Q 1275 1403 1131 1340 
Q 988 1278 909 1158 
Q 831 1038 831 891 
Q 831 666 1001 516 
Q 1172 366 1500 366 
Q 1825 366 2078 508 
Q 2331 650 2450 897 
Q 2541 1088 2541 1459 
L 2541 1666 
z
" transform="scale(0.015625)"/>
       <path id="ArialMT-6d" d="M 422 0 
L 422 3319 
L 925 3319 
L 925 2853 
Q 1081 3097 1340 3245 
Q 1600 3394 1931 3394 
Q 2300 3394 2536 3241 
Q 2772 3088 2869 2813 
Q 3263 3394 3894 3394 
Q 4388 3394 4653 3120 
Q 4919 2847 4919 2278 
L 4919 0 
L 4359 0 
L 4359 2091 
Q 4359 2428 4304 2576 
Q 4250 2725 4106 2815 
Q 3963 2906 3769 2906 
Q 3419 2906 3187 2673 
Q 2956 2441 2956 1928 
L 2956 0 
L 2394 0 
L 2394 2156 
Q 2394 2531 2256 2718 
Q 2119 2906 1806 2906 
Q 1569 2906 1367 2781 
Q 1166 2656 1075 2415 
Q 984 2175 984 1722 
L 984 0 
L 422 0 
z
" transform="scale(0.015625)"/>
       <path id="ArialMT-65" d="M 2694 1069 
L 3275 997 
Q 3138 488 2766 206 
Q 2394 -75 1816 -75 
Q 1088 -75 661 373 
Q 234 822 234 1631 
Q 234 2469 665 2931 
Q 1097 3394 1784 3394 
Q 2450 3394 2872 2941 
Q 3294 2488 3294 1666 
Q 3294 1616 3291 1516 
L 816 1516 
Q 847 969 1125 678 
Q 1403 388 1819 388 
Q 2128 388 2347 550 
Q 2566 713 2694 1069 
z
M 847 1978 
L 2700 1978 
Q 2663 2397 2488 2606 
Q 2219 2931 1791 2931 
Q 1403 2931 1139 2672 
Q 875 2413 847 1978 
z
" transform="scale(0.015625)"/>
       <path id="ArialMT-5f" d="M -97 -1272 
L -97 -866 
L 3631 -866 
L 3631 -1272 
L -97 -1272 
z
" transform="scale(0.015625)"/>
       <path id="ArialMT-6e" d="M 422 0 
L 422 3319 
L 928 3319 
L 928 2847 
Q 1294 3394 1984 3394 
Q 2284 3394 2536 3286 
Q 2788 3178 2913 3003 
Q 3038 2828 3088 2588 
Q 3119 2431 3119 2041 
L 3119 0 
L 2556 0 
L 2556 2019 
Q 2556 2363 2490 2533 
Q 2425 2703 2258 2804 
Q 2091 2906 1866 2906 
Q 1506 2906 1245 2678 
Q 984 2450 984 1813 
L 984 0 
L 422 0 
z
" transform="scale(0.015625)"/>
       <path id="ArialMT-75" d="M 2597 0 
L 2597 488 
Q 2209 -75 1544 -75 
Q 1250 -75 995 37 
Q 741 150 617 320 
Q 494 491 444 738 
Q 409 903 409 1263 
L 409 3319 
L 972 3319 
L 972 1478 
Q 972 1038 1006 884 
Q 1059 663 1231 536 
Q 1403 409 1656 409 
Q 1909 409 2131 539 
Q 2353 669 2445 892 
Q 2538 1116 2538 1541 
L 2538 3319 
L 3100 3319 
L 3100 0 
L 2597 0 
z
" transform="scale(0.015625)"/>
       <path id="ArialMT-62" d="M 941 0 
L 419 0 
L 419 4581 
L 981 4581 
L 981 2947 
Q 1338 3394 1891 3394 
Q 2197 3394 2470 3270 
Q 2744 3147 2920 2923 
Q 3097 2700 3197 2384 
Q 3297 2069 3297 1709 
Q 3297 856 2875 390 
Q 2453 -75 1863 -75 
Q 1275 -75 941 416 
L 941 0 
z
M 934 1684 
Q 934 1088 1097 822 
Q 1363 388 1816 388 
Q 2184 388 2453 708 
Q 2722 1028 2722 1663 
Q 2722 2313 2464 2622 
Q 2206 2931 1841 2931 
Q 1472 2931 1203 2611 
Q 934 2291 934 1684 
z
" transform="scale(0.015625)"/>
      </defs>
      <use xlink:href="#ArialMT-66"/>
      <use xlink:href="#ArialMT-72" x="27.783203"/>
      <use xlink:href="#ArialMT-61" x="61.083984"/>
      <use xlink:href="#ArialMT-6d" x="116.699219"/>
      <use xlink:href="#ArialMT-65" x="200"/>
      <use xlink:href="#ArialMT-5f" x="255.615234"/>
      <use xlink:href="#ArialMT-6e" x="311.230469"/>
      <use xlink:href="#ArialMT-75" x="366.845703"/>
      <use xlink:href="#ArialMT-6d" x="422.460938"/>
      <use xlink:href="#ArialMT-62" x="505.761719"/>
      <use xlink:href="#ArialMT-65" x="561.376953"/>
      <use xlink:href="#ArialMT-72" x="616.992188"/>
     </g>
    </g>
   </g>
   <g id="matplotlib.axis_2">
    <g id="ytick_1">
     <g id="line2d_9">
      <path d="M 57.6 283.392 
L 414.72 283.392 
" clip-path="url(#pee77bcab23)" style="fill: none; stroke: #ffffff; stroke-linecap: round"/>
     </g>
     <g id="text_10">
      <!-- 0.0 -->
      <g style="fill: #262626" transform="translate(32.81 287.328797) scale(0.11 -0.11)">
       <defs>
        <path id="ArialMT-2e" d="M 581 0 
L 581 641 
L 1222 641 
L 1222 0 
L 581 0 
z
" transform="scale(0.015625)"/>
       </defs>
       <use xlink:href="#ArialMT-30"/>
       <use xlink:href="#ArialMT-2e" x="55.615234"/>
       <use xlink:href="#ArialMT-30" x="83.398438"/>
      </g>
     </g>
    </g>
    <g id="ytick_2">
     <g id="line2d_10">
      <path d="M 57.6 235.008 
L 414.72 235.008 
" clip-path="url(#pee77bcab23)" style="fill: none; stroke: #ffffff; stroke-linecap: round"/>
     </g>
     <g id="text_11">
      <!-- 0.2 -->
      <g style="fill: #262626" transform="translate(32.81 238.944797) scale(0.11 -0.11)">
       <use xlink:href="#ArialMT-30"/>
       <use xlink:href="#ArialMT-2e" x="55.615234"/>
       <use xlink:href="#ArialMT-32" x="83.398438"/>
      </g>
     </g>
    </g>
    <g id="ytick_3">
     <g id="line2d_11">
      <path d="M 57.6 186.624 
L 414.72 186.624 
" clip-path="url(#pee77bcab23)" style="fill: none; stroke: #ffffff; stroke-linecap: round"/>
     </g>
     <g id="text_12">
      <!-- 0.4 -->
      <g style="fill: #262626" transform="translate(32.81 190.560797) scale(0.11 -0.11)">
       <defs>
        <path id="ArialMT-34" d="M 2069 0 
L 2069 1097 
L 81 1097 
L 81 1613 
L 2172 4581 
L 2631 4581 
L 2631 1613 
L 3250 1613 
L 3250 1097 
L 2631 1097 
L 2631 0 
L 2069 0 
z
M 2069 1613 
L 2069 3678 
L 634 1613 
L 2069 1613 
z
" transform="scale(0.015625)"/>
       </defs>
       <use xlink:href="#ArialMT-30"/>
       <use xlink:href="#ArialMT-2e" x="55.615234"/>
       <use xlink:href="#ArialMT-34" x="83.398438"/>
      </g>
     </g>
    </g>
    <g id="ytick_4">
     <g id="line2d_12">
      <path d="M 57.6 138.24 
L 414.72 138.24 
" clip-path="url(#pee77bcab23)" style="fill: none; stroke: #ffffff; stroke-linecap: round"/>
     </g>
     <g id="text_13">
      <!-- 0.6 -->
      <g style="fill: #262626" transform="translate(32.81 142.176797) scale(0.11 -0.11)">
       <defs>
        <path id="ArialMT-36" d="M 3184 3459 
L 2625 3416 
Q 2550 3747 2413 3897 
Q 2184 4138 1850 4138 
Q 1581 4138 1378 3988 
Q 1113 3794 959 3422 
Q 806 3050 800 2363 
Q 1003 2672 1297 2822 
Q 1591 2972 1913 2972 
Q 2475 2972 2870 2558 
Q 3266 2144 3266 1488 
Q 3266 1056 3080 686 
Q 2894 316 2569 119 
Q 2244 -78 1831 -78 
Q 1128 -78 684 439 
Q 241 956 241 2144 
Q 241 3472 731 4075 
Q 1159 4600 1884 4600 
Q 2425 4600 2770 4297 
Q 3116 3994 3184 3459 
z
M 888 1484 
Q 888 1194 1011 928 
Q 1134 663 1356 523 
Q 1578 384 1822 384 
Q 2178 384 2434 671 
Q 2691 959 2691 1453 
Q 2691 1928 2437 2201 
Q 2184 2475 1800 2475 
Q 1419 2475 1153 2201 
Q 888 1928 888 1484 
z
" transform="scale(0.015625)"/>
       </defs>
       <use xlink:href="#ArialMT-30"/>
       <use xlink:href="#ArialMT-2e" x="55.615234"/>
       <use xlink:href="#ArialMT-36" x="83.398438"/>
      </g>
     </g>
    </g>
    <g id="ytick_5">
     <g id="line2d_13">
      <path d="M 57.6 89.856 
L 414.72 89.856 
" clip-path="url(#pee77bcab23)" style="fill: none; stroke: #ffffff; stroke-linecap: round"/>
     </g>
     <g id="text_14">
      <!-- 0.8 -->
      <g style="fill: #262626" transform="translate(32.81 93.792797) scale(0.11 -0.11)">
       <defs>
        <path id="ArialMT-38" d="M 1131 2484 
Q 781 2613 612 2850 
Q 444 3088 444 3419 
Q 444 3919 803 4259 
Q 1163 4600 1759 4600 
Q 2359 4600 2725 4251 
Q 3091 3903 3091 3403 
Q 3091 3084 2923 2848 
Q 2756 2613 2416 2484 
Q 2838 2347 3058 2040 
Q 3278 1734 3278 1309 
Q 3278 722 2862 322 
Q 2447 -78 1769 -78 
Q 1091 -78 675 323 
Q 259 725 259 1325 
Q 259 1772 486 2073 
Q 713 2375 1131 2484 
z
M 1019 3438 
Q 1019 3113 1228 2906 
Q 1438 2700 1772 2700 
Q 2097 2700 2305 2904 
Q 2513 3109 2513 3406 
Q 2513 3716 2298 3927 
Q 2084 4138 1766 4138 
Q 1444 4138 1231 3931 
Q 1019 3725 1019 3438 
z
M 838 1322 
Q 838 1081 952 856 
Q 1066 631 1291 507 
Q 1516 384 1775 384 
Q 2178 384 2440 643 
Q 2703 903 2703 1303 
Q 2703 1709 2433 1975 
Q 2163 2241 1756 2241 
Q 1359 2241 1098 1978 
Q 838 1716 838 1322 
z
" transform="scale(0.015625)"/>
       </defs>
       <use xlink:href="#ArialMT-30"/>
       <use xlink:href="#ArialMT-2e" x="55.615234"/>
       <use xlink:href="#ArialMT-38" x="83.398438"/>
      </g>
     </g>
    </g>
    <g id="ytick_6">
     <g id="line2d_14">
      <path d="M 57.6 41.472 
L 414.72 41.472 
" clip-path="url(#pee77bcab23)" style="fill: none; stroke: #ffffff; stroke-linecap: round"/>
     </g>
     <g id="text_15">
      <!-- 1.0 -->
      <g style="fill: #262626" transform="translate(32.81 45.408797) scale(0.11 -0.11)">
       <use xlink:href="#ArialMT-31"/>
       <use xlink:href="#ArialMT-2e" x="55.615234"/>
       <use xlink:href="#ArialMT-30" x="83.398438"/>
      </g>
     </g>
    </g>
    <g id="text_16">
     <!-- loss -->
     <g style="fill: #262626" transform="translate(26.425 185.197688) rotate(-90) scale(0.12 -0.12)">
      <defs>
       <path id="ArialMT-6c" d="M 409 0 
L 409 4581 
L 972 4581 
L 972 0 
L 409 0 
z
" transform="scale(0.015625)"/>
       <path id="ArialMT-6f" d="M 213 1659 
Q 213 2581 725 3025 
Q 1153 3394 1769 3394 
Q 2453 3394 2887 2945 
Q 3322 2497 3322 1706 
Q 3322 1066 3130 698 
Q 2938 331 2570 128 
Q 2203 -75 1769 -75 
Q 1072 -75 642 372 
Q 213 819 213 1659 
z
M 791 1659 
Q 791 1022 1069 705 
Q 1347 388 1769 388 
Q 2188 388 2466 706 
Q 2744 1025 2744 1678 
Q 2744 2294 2464 2611 
Q 2184 2928 1769 2928 
Q 1347 2928 1069 2612 
Q 791 2297 791 1659 
z
" transform="scale(0.015625)"/>
       <path id="ArialMT-73" d="M 197 991 
L 753 1078 
Q 800 744 1014 566 
Q 1228 388 1613 388 
Q 2000 388 2187 545 
Q 2375 703 2375 916 
Q 2375 1106 2209 1216 
Q 2094 1291 1634 1406 
Q 1016 1563 777 1677 
Q 538 1791 414 1992 
Q 291 2194 291 2438 
Q 291 2659 392 2848 
Q 494 3038 669 3163 
Q 800 3259 1026 3326 
Q 1253 3394 1513 3394 
Q 1903 3394 2198 3281 
Q 2494 3169 2634 2976 
Q 2775 2784 2828 2463 
L 2278 2388 
Q 2241 2644 2061 2787 
Q 1881 2931 1553 2931 
Q 1166 2931 1000 2803 
Q 834 2675 834 2503 
Q 834 2394 903 2306 
Q 972 2216 1119 2156 
Q 1203 2125 1616 2013 
Q 2213 1853 2448 1751 
Q 2684 1650 2818 1456 
Q 2953 1263 2953 975 
Q 2953 694 2789 445 
Q 2625 197 2315 61 
Q 2006 -75 1616 -75 
Q 969 -75 630 194 
Q 291 463 197 991 
z
" transform="scale(0.015625)"/>
      </defs>
      <use xlink:href="#ArialMT-6c"/>
      <use xlink:href="#ArialMT-6f" x="22.216797"/>
      <use xlink:href="#ArialMT-73" x="77.832031"/>
      <use xlink:href="#ArialMT-73" x="127.832031"/>
     </g>
    </g>
   </g>
   <g id="PolyCollection_1"/>
   <g id="PolyCollection_2"/>
   <g id="PolyCollection_3"/>
   <g id="PolyCollection_4"/>
   <g id="PolyCollection_5"/>
   <g id="PolyCollection_6"/>
   <g id="line2d_15">
    <path d="M 378.36832 277.9488 
" clip-path="url(#pee77bcab23)" style="fill: none; stroke: #edd1cb; stroke-width: 1.5; stroke-linecap: round"/>
   </g>
   <g id="line2d_16">
    <path d="M 243.382188 283.392 
L 256.536888 283.392 
L 260.23396 283.392 
L 264.017011 283.372646 
L 269.089738 283.389581 
L 278.633344 283.389581 
L 285.511618 283.392 
L 293.249676 283.392 
L 299.61208 283.375066 
L 304.942743 283.389581 
L 371.747982 282.608179 
" clip-path="url(#pee77bcab23)" style="fill: none; stroke: #edd1cb; stroke-width: 1.5; stroke-linecap: round"/>
   </g>
   <g id="line2d_17">
    <path d="M 243.726102 283.392 
L 245.44567 283.389581 
L 247.165239 283.389581 
L 248.884807 283.389581 
L 250.604376 283.392 
L 252.323945 283.392 
L 254.043513 283.392 
L 255.763082 283.392 
L 259.288197 283.392 
L 261.007766 283.392 
L 262.727334 283.392 
L 264.446903 283.392 
L 266.166471 283.392 
L 267.88604 283.392 
L 269.605609 283.392 
L 271.325177 283.372646 
L 273.130724 283.389581 
L 276.569861 283.389581 
L 278.28943 283.392 
L 280.008998 283.392 
L 281.728567 283.389581 
L 283.448136 283.389581 
L 285.167704 283.389581 
L 286.887273 283.389581 
L 288.69282 283.353293 
L 290.412388 283.392 
L 293.851525 283.392 
L 295.571094 283.372646 
L 297.290663 283.389581 
L 299.010231 283.389581 
L 300.7298 283.372646 
L 302.449368 283.389581 
L 304.254915 283.355712 
L 305.974484 283.389581 
L 307.694052 283.392 
L 320.074946 283.389581 
L 321.708536 283.392 
L 369.770478 283.072666 
L 371.490046 283.007347 
L 373.209615 283.312166 
L 374.929183 283.382323 
L 376.648752 283.389581 
L 380.087889 282.646886 
L 383.527026 279.296294 
L 385.332573 282.717043 
L 387.052142 275.038502 
L 388.943667 272.999117 
L 390.663236 282.194496 
L 392.382804 283.280717 
L 394.27433 283.17911 
L 395.993898 282.871872 
L 397.713467 283.162176 
" clip-path="url(#pee77bcab23)" style="fill: none; stroke: #edd0ca; stroke-width: 1.5; stroke-linecap: round"/>
   </g>
   <g id="line2d_18">
    <path d="M 73.832727 283.392 
L 79.16339 283.392 
L 79.165661 -1 
M 80.25876 -1 
L 80.367088 103.076928 
L 80.519132 -1 
M 80.867181 -1 
L 80.882958 2.706739 
L 81.226872 193.378406 
L 81.398829 238.261824 
L 81.570786 202.86167 
L 81.656764 206.887219 
L 81.828721 232.603315 
L 82.000678 208.776614 
L 82.258613 272.483827 
L 82.344592 269.285645 
L 82.602527 247.246733 
L 82.774484 266.762419 
L 82.860462 266.580979 
L 82.946441 270.925862 
L 83.032419 261.972403 
L 83.118398 262.932826 
L 83.376333 278.628595 
L 83.462311 278.231846 
L 83.54829 274.818355 
L 83.634268 275.502989 
L 83.720247 273.062016 
L 83.892203 275.885222 
L 83.978182 276.078758 
L 84.150139 280.104307 
L 84.236117 280.496218 
L 84.322096 279.961574 
L 84.408074 280.590566 
L 84.494052 280.113984 
L 84.580031 278.899546 
L 84.837966 281.159078 
L 84.923945 279.55031 
L 85.009923 280.75991 
L 85.095901 279.980928 
L 85.267858 281.647757 
L 85.439815 281.696141 
L 85.525794 282.329971 
L 85.611772 282.192077 
L 85.783729 281.531635 
L 85.869707 281.761459 
L 85.955686 282.799296 
L 86.127643 281.117952 
L 86.213621 282.071117 
L 86.299599 281.42519 
L 86.471556 282.714624 
L 86.557535 282.020314 
L 86.643513 282.12192 
L 86.729492 282.025152 
L 86.81547 282.963802 
L 86.901448 282.194496 
L 86.987427 283.142822 
L 87.073405 281.359872 
L 87.331341 283.159757 
L 87.417319 281.258266 
L 87.589276 283.198464 
L 87.761233 281.374387 
L 87.847211 281.507443 
L 88.019168 282.458189 
L 88.277103 282.327552 
L 88.363082 283.128307 
L 88.44906 282.419482 
L 88.535039 283.232333 
L 88.706995 281.449382 
L 88.878952 283.278298 
L 88.964931 283.198464 
L 89.050909 281.625984 
L 89.308844 283.319424 
L 89.394823 282.397709 
L 89.480801 282.414643 
L 89.652758 283.350874 
L 89.738737 283.353293 
L 89.824715 282.247718 
L 89.910693 282.450931 
L 90.08265 283.348454 
L 90.254607 283.375066 
L 90.340586 281.422771 
L 90.426564 283.382323 
L 90.512542 283.36055 
L 90.598521 283.353293 
L 90.770478 281.599373 
L 90.942435 283.348454 
L 91.114391 283.290394 
L 91.372327 283.358131 
L 91.544284 283.365389 
L 91.630262 282.835584 
L 91.64964 -1 
M 91.783467 -1 
L 91.802219 271.119398 
L 91.804938 -1 
M 92.059086 -1 
L 92.060154 209.39593 
L 92.146133 187.92553 
L 92.318089 105.275981 
L 92.490046 265.052045 
L 92.576025 267.584947 
L 92.83396 203.328576 
L 93.177874 268.659072 
L 93.263852 266.634202 
L 93.435809 256.4784 
L 93.521787 255.53975 
L 93.607766 235.598285 
L 93.865701 274.968346 
L 94.037658 266.416474 
L 94.123636 253.901952 
L 94.295593 271.005696 
L 94.381572 266.726131 
L 94.553529 273.137011 
L 94.639507 272.137882 
L 94.725485 272.464474 
L 94.897442 270.558144 
L 95.069399 275.171558 
L 95.155378 272.246746 
L 95.241356 276.429542 
L 95.327334 272.087078 
L 95.413313 272.65559 
L 95.499291 274.051469 
L 95.58527 273.313613 
L 95.671248 274.95625 
L 95.757227 270.870221 
L 95.843205 276.146496 
L 96.015162 272.442701 
L 96.10114 274.898189 
L 96.187119 272.333837 
L 96.273097 272.834611 
L 96.359076 275.338483 
L 96.531032 273.969216 
L 96.617011 276.100531 
L 96.702989 275.275584 
L 96.788968 275.807808 
L 96.874946 273.158784 
L 97.132881 275.418317 
L 97.21886 275.391706 
L 97.390817 270.858125 
L 97.648752 275.856192 
L 97.906687 270.466214 
L 98.164622 275.207846 
L 98.250601 275.674752 
L 98.336579 272.012083 
L 98.422558 274.363546 
L 98.766471 271.281485 
L 98.938428 273.891802 
L 99.024407 273.224102 
L 99.110385 275.069952 
L 99.196364 271.320192 
L 99.282342 273.439411 
L 99.36832 269.607398 
L 99.540277 272.706394 
L 99.798213 270.797645 
L 99.884191 273.364416 
L 99.970169 272.44512 
L 100.142126 267.495437 
L 100.228105 275.188493 
L 100.314083 274.000666 
L 100.400062 269.938829 
L 100.48604 272.907187 
L 100.572018 272.244326 
L 100.743975 272.244326 
L 100.829954 272.418509 
L 100.915932 271.38551 
L 101.001911 272.984602 
L 101.087889 272.273357 
L 101.173867 270.231552 
L 101.259846 273.773261 
L 101.345824 273.378931 
L 101.517781 272.866061 
L 101.60376 273.214426 
L 101.689738 273.129754 
L 101.775716 273.391027 
L 102.033652 268.767936 
L 102.11963 273.596659 
L 102.205609 271.68791 
L 102.291587 272.711232 
L 102.549522 270.819418 
L 102.635501 271.012954 
L 102.721479 273.974054 
L 102.807458 273.407962 
L 102.893436 272.488666 
L 102.979414 272.987021 
L 103.065393 272.907187 
L 103.151371 269.757389 
L 103.23735 272.660429 
L 103.323328 271.586304 
L 103.409307 271.695168 
L 103.495285 273.456346 
L 103.667242 268.927603 
L 103.75322 271.908058 
L 103.839199 271.716941 
L 104.011156 270.838771 
L 104.097134 272.307226 
L 104.183112 270.676685 
L 104.269091 272.394317 
L 104.355069 272.270938 
L 104.441048 271.716941 
L 104.527026 274.450637 
L 104.784961 268.84777 
L 104.87094 272.428186 
L 104.956918 270.553306 
L 105.128875 273.376512 
L 105.214854 271.970957 
L 105.300832 272.47657 
L 105.38681 271.155686 
L 105.472789 271.760486 
L 105.558767 270.858125 
L 105.644746 272.493504 
L 105.730724 270.016243 
L 105.816703 271.407283 
L 105.902681 269.479181 
L 105.988659 273.920832 
L 106.160616 271.845158 
L 106.246595 273.088627 
L 106.332573 271.654042 
L 106.418552 272.067725 
L 106.590508 271.462925 
L 106.762465 273.168461 
L 106.934422 268.511501 
L 107.020401 271.433894 
L 107.106379 270.23639 
L 107.192357 272.466893 
L 107.278336 271.003277 
L 107.364314 272.17175 
L 107.536271 271.455667 
L 107.62225 271.17504 
L 107.708228 270.190426 
L 107.794206 270.991181 
L 107.880185 273.047501 
L 108.052142 269.094528 
L 108.396055 282.388032 
L 108.482034 282.102566 
L 108.568012 282.33481 
L 108.653991 282.056602 
L 108.825948 282.966221 
L 108.997904 282.06144 
L 109.25584 283.21056 
L 109.427797 282.646886 
L 109.685732 283.217818 
L 109.77171 283.113792 
L 109.857689 282.874291 
L 110.115624 283.162176 
L 110.287581 283.106534 
L 110.459538 283.256525 
L 110.717473 283.220237 
L 111.319322 283.290394 
L 111.491279 283.290394 
L 112.351063 283.346035 
L 112.52302 283.346035 
L 112.694977 283.365389 
L 112.866934 283.355712 
L 113.210847 283.346035 
L 113.984653 283.372646 
L 118.54151 283.392 
L 126.709461 283.387162 
L 126.795439 283.280717 
L 126.967396 283.372646 
L 127.483267 283.36297 
L 127.569245 278.19072 
L 127.655223 283.002509 
L 127.741202 282.927514 
L 127.82718 282.639629 
L 128.171094 283.164595 
L 128.257072 282.954125 
L 128.343051 283.092019 
L 128.429029 282.963802 
L 128.515008 283.152499 
L 128.600986 283.092019 
L 128.772943 283.169434 
L 128.858921 282.990413 
L 128.9449 283.174272 
L 129.030878 265.918118 
L 129.116857 281.599373 
L 129.202835 280.467187 
L 129.288814 280.769587 
L 129.374792 280.014797 
L 129.546749 281.560666 
L 129.632727 281.601792 
L 129.890663 282.257395 
L 129.976641 280.970381 
L 130.320555 282.777523 
L 130.406533 282.264653 
L 130.664468 282.784781 
L 130.750447 282.049344 
L 130.922404 283.031539 
L 131.008382 283.046054 
L 131.094361 282.833165 
L 131.180339 282.983155 
L 131.352296 282.857357 
L 131.438274 283.009766 
L 131.610231 282.946867 
L 131.69621 282.949286 
L 131.782188 283.17911 
L 131.954145 282.973478 
L 132.040123 282.973478 
L 132.126102 275.577984 
L 132.21208 281.047795 
L 132.298059 280.926835 
L 132.384037 280.655885 
L 132.470015 275.822323 
L 132.641972 280.958285 
L 132.727951 281.582438 
L 132.813929 280.934093 
L 132.858685 -1 
M 132.950861 -1 
L 133.071864 177.648768 
L 133.3298 274.053888 
L 133.415778 261.616781 
L 133.501757 256.38647 
L 133.587735 275.493312 
L 133.673713 274.402253 
L 133.759692 257.963789 
L 133.931649 275.512666 
L 134.103606 268.071206 
L 134.189584 268.286515 
L 134.275562 268.034918 
L 134.361541 270.253325 
L 134.447519 266.542272 
L 134.619476 274.344192 
L 134.705455 267.45431 
L 134.791433 267.51721 
L 134.877411 278.057664 
L 134.96339 265.083494 
L 135.049368 268.499405 
L 135.221325 276.644851 
L 135.307304 261.713549 
L 135.393282 278.435059 
L 135.47926 263.467469 
L 135.565239 275.128013 
L 135.651217 274.508698 
L 135.737196 273.163622 
L 135.823174 277.290778 
L 135.909153 276.066662 
L 135.995131 272.524954 
L 136.167088 278.812454 
L 136.253066 279.983347 
L 136.339045 271.69033 
L 136.339393 -1 
M 139.331684 -1 
L 139.34829 13.104461 
L 139.42728 -1 
M 141.138757 -1 
L 141.239815 132.985498 
L 141.288866 -1 
M 141.641452 -1 
L 141.669707 116.885722 
L 141.755686 95.035507 
L 141.841664 96.806362 
L 141.927643 227.740723 
L 142.099599 112.523904 
L 142.185578 126.877018 
L 142.271556 222.118502 
L 142.357535 201.831091 
L 142.529492 233.91936 
L 142.61547 177.639091 
L 142.701448 182.791987 
L 142.787427 230.706662 
L 142.873405 230.68489 
L 142.959384 225.215078 
L 143.131341 236.52 
L 143.217319 236.844173 
L 143.561233 271.712102 
L 143.73319 255.926822 
L 143.905146 267.386573 
L 143.991125 263.929536 
L 144.077103 266.692262 
L 144.24906 275.505408 
L 144.421017 267.555917 
L 144.506995 271.983053 
L 144.592974 271.970957 
L 144.764931 274.888512 
L 144.936888 280.268813 
L 145.108844 274.878835 
L 145.280801 280.143014 
L 145.36678 278.732621 
L 145.452758 278.853581 
L 145.538737 281.589696 
L 145.624715 281.500186 
L 145.710693 281.139725 
L 145.796672 279.772877 
L 145.88265 280.326874 
L 146.054607 282.569472 
L 146.226564 281.248589 
L 146.312542 282.443674 
L 146.398521 282.216269 
L 146.484499 282.020314 
L 146.570478 282.206592 
L 146.742435 282.888806 
L 146.914391 282.194496 
L 147.172327 283.137984 
L 147.258305 282.680755 
L 147.51624 283.055731 
L 147.688197 282.81865 
L 147.860154 283.329101 
L 148.032111 282.985574 
L 148.204068 283.229914 
L 148.462003 283.278298 
L 148.63396 283.285555 
L 149.063852 283.295232 
L 149.321787 283.338778 
L 151.38527 283.389581 
L 151.643205 283.33152 
L 151.729183 251.811763 
L 151.815162 275.229619 
L 151.90114 269.184038 
L 152.073097 282.472704 
L 152.245054 270.935539 
L 152.331032 281.176013 
L 152.366285 -1 
M 152.475474 -1 
L 152.502989 190.093133 
L 152.504205 -1 
M 156.085614 -1 
L 156.114083 135.257126 
L 156.200062 35.111923 
L 156.209987 -1 
M 156.367555 -1 
L 156.457997 73.545754 
L 156.543975 8.868442 
L 156.801911 186.036134 
L 156.855301 -1 
M 156.976089 -1 
L 157.059846 227.738304 
L 157.231803 11.56343 
L 157.40376 236.420813 
L 157.489738 89.82455 
L 157.575716 100.59241 
L 157.747673 241.254374 
L 157.833652 189.384307 
L 157.91963 197.399117 
L 157.980451 -1 
M 158.035856 -1 
L 158.177565 196.182259 
L 158.349522 237.898944 
L 158.435501 222.350746 
L 158.607458 274.220813 
L 158.693436 265.165747 
L 158.865393 242.035776 
L 159.03735 262.083686 
L 159.123328 257.673485 
L 159.209307 242.880077 
L 159.381263 278.868096 
L 159.55322 259.780608 
L 159.725177 273.434573 
L 159.811156 235.917619 
L 159.983112 273.811968 
L 160.069091 266.948698 
L 160.155069 260.95392 
L 160.327026 277.077888 
L 160.413005 262.579622 
L 160.67094 277.943962 
L 160.756918 278.531827 
L 160.842897 276.995635 
L 160.928875 277.068211 
L 161.014854 279.136627 
L 161.18681 275.752166 
L 161.444746 280.888128 
L 161.530724 280.101888 
L 161.616703 280.430899 
L 161.702681 281.342938 
L 161.874638 278.026214 
L 162.132573 281.454221 
L 162.218552 281.647757 
L 162.390508 280.658304 
L 162.476487 282.046925 
L 162.562465 281.817101 
L 162.734422 281.686464 
L 162.820401 282.470285 
L 162.906379 282.385613 
L 163.164314 282.414643 
L 163.336271 282.900902 
L 163.508228 282.661402 
L 163.680185 282.871872 
L 163.766163 282.886387 
L 164.024099 283.232333 
L 164.110077 283.012186 
L 164.368012 283.249267 
L 164.539969 283.11863 
L 164.711926 283.324262 
L 164.797904 283.33152 
L 164.883883 283.200883 
L 164.969861 283.268621 
L 165.915624 283.358131 
L 166.259538 283.365389 
L 166.345516 283.191206 
L 166.517473 283.384742 
L 167.463236 283.382323 
L 167.807149 283.387162 
L 167.893128 283.254106 
L 168.065085 283.387162 
L 168.752912 283.389581 
L 168.838891 283.203302 
L 169.010847 283.389581 
L 170.902373 283.392 
L 171.160308 283.389581 
L 171.246287 283.203302 
L 171.418243 283.392 
L 173.22379 283.392 
L 173.309769 283.212979 
L 173.481726 283.392 
L 173.567704 283.392 
L 173.653683 283.227494 
L 173.825639 283.387162 
L 225.412696 283.389581 
L 225.498675 280.348646 
L 225.584653 283.142822 
L 225.670632 283.041216 
L 225.928567 283.266202 
L 226.014545 283.123469 
L 226.272481 283.353293 
L 226.358459 282.775104 
L 226.530416 283.333939 
L 226.702373 283.317005 
L 226.788351 283.263782 
L 226.960308 283.365389 
L 227.3902 283.365389 
L 228.249985 283.336358 
L 228.851834 283.367808 
L 230.055532 283.375066 
L 233.322712 283.392 
L 323.772018 283.389581 
L 323.857997 274.04905 
L 323.943975 282.775104 
L 324.029954 281.96951 
L 324.201911 283.167014 
L 324.238613 -1 
M 324.341058 -1 
L 324.373867 234.424973 
L 324.459846 154.475251 
L 324.545824 169.217856 
L 324.717781 275.360256 
L 324.889738 205.25184 
L 325.061695 262.129651 
L 325.31963 236.372429 
L 325.577565 271.08553 
L 325.663544 250.870694 
L 325.749522 255.186547 
L 326.007458 280.832486 
L 326.179414 269.358221 
L 326.351371 276.204557 
L 326.43735 277.099661 
L 326.523328 274.753037 
L 326.781263 282.148531 
L 326.867242 282.102566 
L 327.039199 276.782746 
L 327.125177 278.505216 
L 327.297134 282.361421 
L 327.469091 280.128499 
L 327.555069 280.672819 
L 327.641048 282.013056 
L 327.727026 281.734848 
L 327.898983 281.39616 
L 327.984961 282.206592 
L 328.017518 -1 
M 328.127511 -1 
L 328.156918 240.574579 
L 328.242897 47.215181 
L 328.244225 -1 
M 328.4129 -1 
L 328.500832 82.56937 
L 328.58681 119.924237 
L 328.758767 42.567898 
L 328.844746 69.225062 
L 329.016703 243.317952 
L 329.102681 120.57984 
L 329.274638 251.456141 
L 329.360616 249.453043 
L 329.446595 173.243405 
L 329.70453 267.313997 
L 329.876487 214.490765 
L 330.048444 266.068109 
L 330.220401 241.820467 
L 330.306379 243.632448 
L 330.478336 277.031923 
L 330.564314 272.941056 
L 330.736271 250.916659 
L 330.908228 273.947443 
L 331.080185 257.697677 
L 331.166163 263.844864 
L 331.33812 276.809357 
L 331.596055 268.134106 
L 331.682034 275.573146 
L 331.768012 268.81632 
L 331.939969 274.898189 
L 332.025948 274.114368 
L 332.197904 278.979379 
L 332.369861 275.974733 
L 332.45584 274.237747 
L 332.713775 282.015475 
L 332.885732 278.023795 
L 333.143667 282.15337 
L 333.315624 280.982477 
L 333.401602 281.277619 
L 333.659538 282.656563 
L 333.745516 282.60576 
L 333.831495 281.778394 
L 334.08943 282.927514 
L 334.175408 282.893645 
L 334.261387 282.421901 
L 334.6053 283.026701 
L 334.777257 283.055731 
L 334.949214 283.162176 
L 335.379106 283.225075 
L 335.405841 -1 
M 335.52456 -1 
L 335.551063 279.666432 
L 335.637042 278.647949 
L 335.72302 269.900122 
L 335.808998 279.010829 
L 335.894977 265.734259 
L 336.066934 279.680947 
L 336.324869 283.17911 
L 336.410847 282.317875 
L 336.668783 276.577114 
L 336.84074 282.794458 
L 337.012696 283.283136 
L 337.270632 281.238912 
L 337.35661 282.409805 
L 337.442589 282.201754 
L 337.614545 283.072666 
L 337.786502 283.326682 
L 338.044438 282.883968 
L 338.130416 283.116211 
L 338.216394 282.971059 
L 338.47433 283.372646 
L 338.732265 283.225075 
L 338.818243 283.0896 
L 338.904222 283.232333 
L 338.9902 283.154918 
L 339.248136 283.365389 
L 339.506071 283.297651 
L 339.678028 283.24201 
L 340.193898 283.341197 
L 340.451834 283.295232 
L 340.709769 283.387162 
L 341.139661 283.365389 
L 341.166276 -1 
M 341.285138 -1 
L 341.397596 282.317875 
L 341.483575 277.271424 
L 341.655532 259.785446 
L 341.913467 282.025152 
L 341.939991 -1 
M 342.058817 -1 
L 342.085424 283.30249 
L 342.171402 283.147661 
L 342.343359 283.079923 
L 342.515316 282.881549 
L 342.773251 283.309747 
L 343.117165 283.137984 
L 343.203143 282.971059 
L 343.3751 283.200883 
L 343.461079 283.333939 
L 343.487787 -1 
M 343.606585 -1 
L 343.633035 279.36887 
L 343.719014 272.728166 
L 343.804992 274.854643 
L 343.890971 281.473574 
L 343.976949 277.423834 
L 344.062928 264.950438 
L 344.234884 281.052634 
L 344.406841 283.304909 
L 344.43274 -1 
M 344.5529 -1 
L 344.578798 283.292813 
L 344.664777 283.106534 
L 344.922712 280.319616 
L 344.950553 -1 
M 345.067163 -1 
L 345.094669 275.343322 
L 345.180647 263.390054 
L 345.266626 275.476378 
L 345.352604 268.279258 
L 345.610539 282.02999 
L 345.696518 283.220237 
L 345.782496 282.93961 
L 346.12641 275.604595 
L 346.212388 283.336358 
L 346.298367 275.512666 
L 346.556302 282.992832 
L 346.64228 283.343616 
L 346.728259 282.702528 
L 346.755914 -1 
M 346.87339 -1 
L 346.900216 270.32832 
L 346.986194 265.506854 
L 347.072173 264.754483 
L 347.158151 283.379904 
L 347.244129 257.320282 
L 347.502065 279.61321 
L 347.588043 282.912998 
L 347.674022 282.825907 
L 347.76 279.085824 
L 347.845978 280.242202 
L 347.931957 272.95799 
L 348.017935 278.669722 
L 348.189892 276.10295 
L 348.447827 283.285555 
L 348.533806 282.99767 
L 348.791741 277.416576 
L 348.87772 280.631693 
L 348.963698 268.818739 
L 349.307612 281.693722 
L 349.565547 277.6464 
L 349.651525 278.193139 
L 349.909461 281.500186 
L 349.995439 281.180851 
L 350.167396 282.557376 
L 350.425331 281.057472 
L 350.683267 283.012186 
L 350.855223 282.477542 
L 350.941202 282.69769 
L 351.199137 283.050893 
L 351.371094 282.608179 
L 351.543051 283.130726 
L 351.629029 283.147661 
L 351.800986 282.980736 
L 352.316857 283.246848 
L 352.402835 283.212979 
L 352.574792 283.295232 
L 353.176641 283.290394 
L 353.520555 283.358131 
L 354.552296 283.377485 
L 354.89621 283.382323 
L 354.922942 -1 
M 355.041553 -1 
L 355.154145 282.400128 
L 355.326102 269.51063 
L 355.41208 267.652685 
L 355.498059 281.696141 
L 355.584037 278.681818 
L 355.670015 278.710848 
L 355.841972 283.222656 
L 355.927951 283.152499 
L 356.099908 280.967962 
L 356.185886 280.876032 
L 356.271864 279.997862 
L 356.5298 281.146982 
L 356.701757 283.370227 
L 357.131649 280.58089 
L 357.217627 282.15337 
L 357.303606 281.139725 
L 357.561541 283.326682 
L 357.647519 283.33152 
L 357.905455 282.298522 
L 358.16339 283.196045 
L 358.249368 282.946867 
L 358.421325 283.377485 
L 358.507304 283.377485 
L 358.765239 282.942029 
L 358.851217 283.191206 
L 358.937196 283.0896 
L 359.195131 283.387162 
L 359.453066 283.343616 
L 359.539045 283.18153 
L 359.625023 283.237171 
L 359.79698 283.23959 
L 359.968937 283.382323 
L 360.054915 283.365389 
L 360.081751 -1 
M 360.200191 -1 
L 360.226872 280.980058 
L 360.312851 277.578662 
L 360.484807 260.958758 
L 360.570786 265.492339 
L 360.656764 278.76649 
L 360.684066 -1 
M 360.801284 -1 
L 360.828721 280.805875 
L 360.9147 280.612339 
L 361.172635 283.094438 
L 361.258613 283.33152 
L 361.344592 283.295232 
L 361.43057 283.263782 
L 361.602527 282.21385 
L 361.688505 282.772685 
L 361.774484 282.460608 
L 361.860462 282.613018 
L 362.032419 283.346035 
L 362.118398 283.365389 
L 362.290354 283.12105 
L 362.376333 282.862195 
L 362.462311 282.932352 
L 362.54829 283.261363 
L 362.634268 283.227494 
L 362.892203 283.384742 
L 363.236117 283.292813 
L 364.267858 283.375066 
L 365.643513 283.367808 
L 366.159384 283.387162 
L 368.652758 283.392 
L 368.679492 -1 
M 368.798076 -1 
L 368.824715 281.930803 
L 368.910693 280.522829 
L 368.996672 278.200397 
L 369.08265 269.067917 
L 369.168629 270.746842 
L 369.340586 275.340902 
L 369.426564 281.45664 
L 369.512542 281.248589 
L 369.684499 283.36297 
L 369.856456 282.112243 
L 370.114391 277.924608 
L 370.20037 279.00599 
L 370.372327 282.700109 
L 370.458305 283.341197 
L 370.544284 283.171853 
L 370.71624 280.723622 
L 370.802219 282.63721 
L 370.888197 281.074406 
L 370.974176 281.18569 
L 371.146133 282.896064 
L 371.318089 283.346035 
L 371.404068 283.234752 
L 371.662003 282.385613 
L 371.919938 283.275878 
L 372.091895 283.336358 
L 372.263852 283.341197 
L 372.693744 283.167014 
L 372.865701 283.355712 
L 373.037658 283.353293 
L 373.295593 283.297651 
L 373.897442 283.377485 
L 374.327334 283.36297 
L 375.10114 283.382323 
L 377.164622 283.389581 
L 377.250601 283.389581 
L 377.277337 -1 
M 377.395896 -1 
L 377.422558 282.24288 
L 377.508536 276.765811 
L 377.594515 277.160141 
L 377.766471 263.416666 
L 378.024407 283.06057 
L 378.110385 282.763008 
L 378.196364 281.843712 
L 378.282342 279.514022 
L 378.454299 280.892966 
L 378.540277 275.989248 
L 378.626256 278.287488 
L 378.712234 275.991667 
L 378.884191 283.164595 
L 378.970169 283.21056 
L 379.142126 280.249459 
L 379.228105 282.337229 
L 379.314083 278.759232 
L 379.400062 280.423642 
L 379.48604 279.093082 
L 379.657997 283.30007 
L 379.743975 283.249267 
L 379.915932 281.954995 
L 380.001911 281.947738 
L 380.259846 282.888806 
L 380.431803 283.317005 
L 380.517781 283.358131 
L 380.689738 282.975898 
L 380.775716 282.702528 
L 381.033652 283.292813 
L 381.205609 283.358131 
L 381.549522 283.200883 
L 381.807458 283.36297 
L 382.151371 283.350874 
L 382.495285 283.336358 
L 382.522142 -1 
M 382.640449 -1 
L 382.667242 282.359002 
L 382.75322 277.370611 
L 382.839199 268.959053 
L 383.011156 278.628595 
L 383.183112 276.185203 
L 383.269091 281.294554 
L 383.355069 278.781005 
L 383.441048 279.482573 
L 383.613005 280.684915 
L 383.784961 278.88745 
L 384.214854 282.661402 
L 384.300832 282.753331 
L 384.472789 281.659853 
L 384.644746 282.21385 
L 384.730724 282.192077 
L 384.902681 282.951706 
L 385.160616 283.169434 
L 385.246595 283.067827 
L 385.590508 283.15008 
L 385.762465 283.307328 
L 385.934422 283.237171 
L 386.192357 283.082342 
L 386.278336 283.304909 
L 386.305124 -1 
M 386.423602 -1 
L 386.450293 281.802586 
L 386.47847 -1 
M 386.594927 -1 
L 386.62225 269.230003 
L 386.708228 227.56896 
L 386.794206 256.035686 
L 386.880185 244.268698 
L 386.966163 270.543629 
L 387.224099 283.24201 
L 387.310077 281.459059 
L 387.396055 276.214234 
L 387.482034 277.382707 
L 387.568012 277.544794 
L 387.653991 272.563661 
L 387.911926 283.147661 
L 387.997904 281.444544 
L 388.169861 257.852506 
L 388.25584 259.976563 
L 388.341818 272.099174 
L 388.427797 262.318349 
L 388.599753 283.295232 
L 388.685732 281.797747 
L 388.857689 269.418701 
L 389.115624 277.564147 
L 389.287581 283.169434 
L 389.373559 282.944448 
L 389.459538 281.238912 
L 389.545516 276.023117 
L 389.631495 281.081664 
L 389.717473 278.851162 
L 389.803451 279.746266 
L 389.88943 281.858227 
L 389.975408 281.710656 
L 390.147365 283.36055 
L 390.319322 282.080794 
L 390.577257 282.917837 
L 390.749214 282.603341 
L 391.007149 283.30007 
L 391.093128 283.350874 
L 391.52302 282.777523 
L 391.694977 283.348454 
L 391.866934 283.333939 
L 392.124869 283.200883 
L 392.296826 283.350874 
L 392.726718 283.36055 
L 393.500524 283.387162 
L 393.52718 -1 
M 393.645945 -1 
L 393.672481 281.531635 
L 393.758459 279.272102 
L 393.844438 276.40777 
L 393.930416 265.927795 
L 394.102373 279.42935 
L 394.360308 283.249267 
L 394.446287 282.284006 
L 394.618243 279.40032 
L 394.704222 279.816422 
L 394.876179 282.929933 
L 395.048136 283.36297 
L 395.220092 283.02912 
L 395.392049 282.339648 
L 395.478028 274.994957 
L 395.649985 282.419482 
L 395.821941 283.258944 
L 395.90792 283.133146 
L 396.079877 281.964672 
L 396.165855 282.126758 
L 396.251834 283.164595 
L 396.337812 283.002509 
L 396.595747 283.372646 
L 397.111618 283.062989 
L 397.369553 283.384742 
L 398.143359 283.382323 
L 398.487273 283.309747 
L 398.487273 283.309747 
" clip-path="url(#pee77bcab23)" style="fill: none; stroke: #edd0ca; stroke-width: 1.5; stroke-linecap: round"/>
   </g>
   <g id="line2d_19">
    <path d="M 390.958118 -1 
L 392.210847 283.232333 
" clip-path="url(#pee77bcab23)" style="fill: none; stroke: #e5bcbb; stroke-width: 1.5; stroke-linecap: round"/>
   </g>
   <g id="line2d_20">
    <path d="M 322.396364 283.392 
" clip-path="url(#pee77bcab23)" style="fill: none; stroke: #2d1e3e; stroke-width: 1.5; stroke-linecap: round"/>
   </g>
   <g id="patch_3">
    <path d="M 57.6 307.584 
L 57.6 41.472 
" style="fill: none; stroke: #ffffff; stroke-width: 1.25; stroke-linejoin: miter; stroke-linecap: square"/>
   </g>
   <g id="patch_4">
    <path d="M 414.72 307.584 
L 414.72 41.472 
" style="fill: none; stroke: #ffffff; stroke-width: 1.25; stroke-linejoin: miter; stroke-linecap: square"/>
   </g>
   <g id="patch_5">
    <path d="M 57.6 307.584 
L 414.72 307.584 
" style="fill: none; stroke: #ffffff; stroke-width: 1.25; stroke-linejoin: miter; stroke-linecap: square"/>
   </g>
   <g id="patch_6">
    <path d="M 57.6 41.472 
L 414.72 41.472 
" style="fill: none; stroke: #ffffff; stroke-width: 1.25; stroke-linejoin: miter; stroke-linecap: square"/>
   </g>
  </g>
 </g>
 <defs>
  <clipPath id="pee77bcab23">
   <rect x="57.6" y="41.472" width="357.12" height="266.112"/>
  </clipPath>
 </defs>
</svg>
